<svg id="apple_badge" xmlns="http://www.w3.org/2000/svg" width="134.884" height="56.685" viewBox="0 0 134.884 56.685">
  <g id="Grupo_370" data-name="Grupo 370">
    <g id="Grupo_367" data-name="Grupo 367">
      <g id="Grupo_357" data-name="Grupo 357">
        <g id="Grupo_356" data-name="Grupo 356">
          <path id="Trazado_445" data-name="Trazado 445" d="M121.379,0H13.512c-.52,0-1.033,0-1.552,0-.434,0-.864.011-1.3.018a18.643,18.643,0,0,0-2.84.249,9.523,9.523,0,0,0-2.694.889A9.132,9.132,0,0,0,2.831,2.83a8.906,8.906,0,0,0-1.671,2.3,9.388,9.388,0,0,0-.886,2.7,18.533,18.533,0,0,0-.254,2.837C.009,11.1.007,11.533,0,11.966V44.723c.007.441.009.866.021,1.307a18.5,18.5,0,0,0,.254,2.837,9.34,9.34,0,0,0,.886,2.7A8.78,8.78,0,0,0,2.83,53.852a8.877,8.877,0,0,0,2.294,1.671,9.506,9.506,0,0,0,2.694.894,19.2,19.2,0,0,0,2.84.251c.438.01.869.016,1.3.016H121.379c.509,0,1.027,0,1.536,0,.432,0,.874-.006,1.307-.016a18.945,18.945,0,0,0,2.834-.251,9.612,9.612,0,0,0,2.7-.894,8.863,8.863,0,0,0,2.292-1.671,9.119,9.119,0,0,0,1.675-2.287,9.324,9.324,0,0,0,.877-2.7,19.253,19.253,0,0,0,.264-2.837c.006-.441.006-.866.006-1.307.011-.514.011-1.027.011-1.55V13.514c0-.519,0-1.033-.011-1.548,0-.435,0-.87-.006-1.305a18.877,18.877,0,0,0-.264-2.837,9.342,9.342,0,0,0-.877-2.7,9.175,9.175,0,0,0-3.967-3.968,9.555,9.555,0,0,0-2.7-.889A18.577,18.577,0,0,0,124.222.02C123.789.013,123.347,0,122.915,0Z" fill="#a6a6a6"/>
          <path id="Trazado_446" data-name="Trazado 446" d="M11.6,55.08c-.432,0-.853-.006-1.281-.016a18.075,18.075,0,0,1-2.649-.231,8.321,8.321,0,0,1-2.348-.777,7.668,7.668,0,0,1-1.98-1.441A7.577,7.577,0,0,1,1.9,50.638a8.108,8.108,0,0,1-.77-2.348,17.555,17.555,0,0,1-.235-2.657c-.009-.3-.021-1.294-.021-1.294V11.6s.013-.979.021-1.268A17.336,17.336,0,0,1,1.13,7.68,8.074,8.074,0,0,1,1.9,5.326,7.62,7.62,0,0,1,3.337,3.345,7.875,7.875,0,0,1,5.324,1.9a8.246,8.246,0,0,1,2.343-.771A17.756,17.756,0,0,1,10.325.892L11.6.875h110.94l1.294.018a17.532,17.532,0,0,1,2.633.231,8.4,8.4,0,0,1,2.368.777,7.926,7.926,0,0,1,3.422,3.429,8.131,8.131,0,0,1,.758,2.337,18.563,18.563,0,0,1,.247,2.674c0,.4,0,.832,0,1.261.011.531.011,1.037.011,1.548V42.809c0,.514,0,1.018-.011,1.523,0,.461,0,.883-.006,1.318a18.224,18.224,0,0,1-.242,2.627,8.149,8.149,0,0,1-.765,2.367,8,8,0,0,1-3.422,3.414,8.323,8.323,0,0,1-2.364.779,17.877,17.877,0,0,1-2.649.231c-.415.01-.85.016-1.271.016l-1.536,0Z" transform="translate(0.364 0.365)"/>
        </g>
      </g>
      <g id="Grupo_366" data-name="Grupo 366" transform="translate(14.414 23.975)">
        <g id="Grupo_362" data-name="Grupo 362">
          <g id="Grupo_361" data-name="Grupo 361">
            <g id="Grupo_360" data-name="Grupo 360">
              <g id="Grupo_359" data-name="Grupo 359">
                <g id="Grupo_358" data-name="Grupo 358">
                  <path id="Trazado_447" data-name="Trazado 447" d="M19.27,20.271a4.706,4.706,0,0,0,1.083-3.353,4.669,4.669,0,0,0-3.092,1.6,4.4,4.4,0,0,0-1.108,3.223,3.9,3.9,0,0,0,3.118-1.47" transform="translate(-7.686 -16.918)" fill="#fff"/>
                  <path id="Trazado_448" data-name="Trazado 448" d="M22.823,20.486c-1.722-.1-3.186.978-4.009.978s-2.082-.925-3.444-.9a5.075,5.075,0,0,0-4.317,2.623C9.2,26.374,10.565,31.1,12.365,33.7c.874,1.285,1.927,2.7,3.315,2.649C16.99,36.3,17.5,35.5,19.1,35.5s2.055.849,3.444.823c1.44-.026,2.338-1.285,3.213-2.572A11.445,11.445,0,0,0,27.192,30.8a4.669,4.669,0,0,1-2.8-4.243,4.762,4.762,0,0,1,2.262-3.986,4.933,4.933,0,0,0-3.831-2.082" transform="translate(-10.171 -15.433)" fill="#fff"/>
                </g>
              </g>
            </g>
          </g>
        </g>
        <g id="Grupo_365" data-name="Grupo 365" transform="translate(19.181 1.479)">
          <g id="Grupo_364" data-name="Grupo 364">
            <g id="Grupo_363" data-name="Grupo 363">
              <path id="Trazado_449" data-name="Trazado 449" d="M35.934,32.034H28.584l-1.764,5.212H23.706l6.962-19.283H33.9l6.962,19.283H37.7Zm-6.59-2.406h5.826L32.3,21.169h-.081Z" transform="translate(-23.706 -17.962)" fill="#fff"/>
              <path id="Trazado_450" data-name="Trazado 450" d="M37.46,21.716h2.752v2.392h.068a3.386,3.386,0,0,1,3.381-2.619,5.289,5.289,0,0,1,.988.106v2.687a4.131,4.131,0,0,0-1.3-.16,2.9,2.9,0,0,0-3.007,3.234v8.419H37.46Z" transform="translate(-17.969 -16.491)" fill="#fff"/>
              <path id="Trazado_451" data-name="Trazado 451" d="M53.453,26.562a3.189,3.189,0,0,0-3.3-2.685c-2.232,0-3.7,1.856-3.7,4.878,0,3.087,1.484,4.876,3.728,4.876a3.093,3.093,0,0,0,3.275-2.606h2.779c-.308,2.993-2.7,5.025-6.079,5.025-4.023,0-6.642-2.752-6.642-7.3,0-4.464,2.62-7.284,6.615-7.284,3.622,0,5.826,2.326,6.081,5.092H53.453Z" transform="translate(-15.444 -16.499)" fill="#fff"/>
              <path id="Trazado_452" data-name="Trazado 452" d="M54.234,31.787c0-2.459,1.883-3.969,5.225-4.158l3.849-.227V26.319c0-1.565-1.056-2.5-2.819-2.5-1.671,0-2.712.8-2.967,2.058H54.8c.16-2.538,2.326-4.409,5.8-4.409,3.407,0,5.585,1.8,5.585,4.624v9.689H63.416V33.47h-.068a5.022,5.022,0,0,1-4.437,2.554C56.157,36.023,54.234,34.312,54.234,31.787Zm9.072-1.27V29.409l-3.461.213c-1.723.12-2.7.883-2.7,2.086,0,1.229,1.016,2.031,2.566,2.031A3.369,3.369,0,0,0,63.306,30.517Z" transform="translate(-10.972 -16.499)" fill="#fff"/>
              <path id="Trazado_453" data-name="Trazado 453" d="M64.7,30.216c0-4.437,2.352-7.257,5.88-7.257a4.792,4.792,0,0,1,4.41,2.566h.052V17.962h2.9V37.245H75.135V34.853h-.054A4.866,4.866,0,0,1,70.6,37.486C67.05,37.486,64.7,34.652,64.7,30.216Zm2.953,0c0,2.966,1.431,4.822,3.716,4.822,2.218,0,3.7-1.883,3.7-4.822,0-2.915-1.484-4.824-3.7-4.824C69.081,25.392,67.651,27.263,67.651,30.216Z" transform="translate(-6.607 -17.962)" fill="#fff"/>
              <path id="Trazado_454" data-name="Trazado 454" d="M88.775,31.653c-.4,2.566-2.833,4.4-6.053,4.4-4.13,0-6.629-2.793-6.629-7.23,0-4.41,2.539-7.351,6.509-7.351,3.9,0,6.335,2.753,6.335,7.015v.989h-9.93v.174c0,2.446,1.471,4.062,3.782,4.062a3.187,3.187,0,0,0,3.248-2.058h2.738Zm-9.754-4.2H86.05A3.451,3.451,0,0,0,82.6,23.8,3.623,3.623,0,0,0,79.021,27.456Z" transform="translate(-1.854 -16.499)" fill="#fff"/>
            </g>
          </g>
        </g>
      </g>
    </g>
    <g id="Grupo_369" data-name="Grupo 369" transform="translate(15.492 10.045)">
      <g id="XMLID_4_">
        <g id="Grupo_368" data-name="Grupo 368">
          <path id="Trazado_455" data-name="Trazado 455" d="M10.932,16.089V7.539H16.27V8.683H12.258v2.708h3.673v1.12H12.258v3.578H10.932Z" transform="translate(-10.932 -6.9)" fill="#fff"/>
          <path id="Trazado_456" data-name="Trazado 456" d="M15.834,7.893a.806.806,0,1,1,.8.8A.806.806,0,0,1,15.834,7.893Zm.171,1.95h1.268v6.435H16.005Z" transform="translate(-8.887 -7.088)" fill="#fff"/>
          <path id="Trazado_457" data-name="Trazado 457" d="M18.3,9.069h1.226v1.019h.095a1.936,1.936,0,0,1,1.926-1.144,2.094,2.094,0,0,1,2.233,2.394V15.5H22.506V11.639c0-1.066-.451-1.587-1.392-1.587a1.5,1.5,0,0,0-1.54,1.676V15.5H18.3Z" transform="translate(-7.859 -6.314)" fill="#fff"/>
          <path id="Trazado_458" data-name="Trazado 458" d="M23.336,12.986c0-2.026,1.049-3.325,2.678-3.325a2.137,2.137,0,0,1,1.978,1.132h.095V7.251H29.36V16.21H28.14V15.191h-.1a2.239,2.239,0,0,1-2.026,1.125C24.373,16.316,23.336,15.024,23.336,12.986Zm1.315.006c0,1.4.646,2.233,1.725,2.233s1.736-.847,1.736-2.233-.67-2.24-1.736-2.24S24.651,11.6,24.651,12.992Z" transform="translate(-5.758 -7.02)" fill="#fff"/>
          <path id="Trazado_459" data-name="Trazado 459" d="M31.433,7.893a.806.806,0,1,1,.8.8A.806.806,0,0,1,31.433,7.893Zm.171,1.95h1.268v6.435H31.6Z" transform="translate(-2.38 -7.088)" fill="#fff"/>
          <path id="Trazado_460" data-name="Trazado 460" d="M35.792,7.886V9.527h1.4v1.019h-1.4v3.4c0,.693.279.995.913.995a4.07,4.07,0,0,0,.486-.03V15.92a4.114,4.114,0,0,1-.693.065c-1.416,0-1.978-.5-1.978-1.736v-3.7H33.5V9.528H34.52V7.886Z" transform="translate(-1.52 -6.755)" fill="#fff"/>
          <path id="Trazado_461" data-name="Trazado 461" d="M39.537,12.286c0-2.073,1.162-3.342,3.045-3.342s3.04,1.263,3.04,3.342-1.155,3.342-3.04,3.342S39.537,14.366,39.537,12.286Zm4.776,0c0-1.434-.628-2.263-1.73-2.263s-1.73.829-1.73,2.263.622,2.257,1.73,2.257S44.313,13.714,44.313,12.286Z" transform="translate(1 -6.314)" fill="#fff"/>
          <path id="Trazado_462" data-name="Trazado 462" d="M45.041,9.069h1.226v1.019h.095a1.936,1.936,0,0,1,1.926-1.144,2.094,2.094,0,0,1,2.233,2.394V15.5H49.247V11.639c0-1.066-.451-1.587-1.392-1.587a1.5,1.5,0,0,0-1.54,1.676V15.5H45.041V9.069Z" transform="translate(3.296 -6.314)" fill="#fff"/>
        </g>
      </g>
    </g>
  </g>
</svg>
