<svg xmlns="http://www.w3.org/2000/svg" width="133.981" height="43.827" viewBox="0 0 133.981 43.827">
  <g id="Grupo_321" data-name="Grupo 321" transform="translate(-96.641 -738.619)">
    <path id="Trazado_92" data-name="Trazado 92" d="M230.622,776.523a5.923,5.923,0,0,1-5.921,5.923H102.564a5.924,5.924,0,0,1-5.923-5.923V744.542a5.923,5.923,0,0,1,5.923-5.923H224.7a5.922,5.922,0,0,1,5.921,5.923Z" transform="translate(0)" fill="#161615"/>
    <path id="Trazado_93" data-name="Trazado 93" d="M147.65,767.232H136.659a2.373,2.373,0,0,0-2.386,2.36v24.089a2.373,2.373,0,0,0,2.386,2.361H147.65a2.374,2.374,0,0,0,2.387-2.361V769.591A2.373,2.373,0,0,0,147.65,767.232Zm-5.5,27.077a1.572,1.572,0,1,1,1.589-1.572A1.58,1.58,0,0,1,142.154,794.309Zm6.008-3.909H136.146V772.631h12.016Z" transform="translate(-27.704 -21.064)" fill="#fff"/>
    <g id="Grupo_319" data-name="Grupo 319" transform="translate(128.848 745.695)">
      <path id="Trazado_94" data-name="Trazado 94" d="M223.884,771.377l-.668,2.023h-.859l2.186-6.434h1l2.2,6.434h-.888l-.687-2.023Zm2.109-.649-.639-1.852c-.134-.421-.229-.8-.325-1.174H225c-.086.372-.191.774-.315,1.164l-.63,1.862Z" transform="translate(-222.357 -766.624)" fill="#fff"/>
      <path id="Trazado_95" data-name="Trazado 95" d="M243.516,773.842l.907,2.587c.153.429.277.812.373,1.193h.028c.1-.381.238-.764.391-1.193l.9-2.587h.878l-1.814,4.62h-.8l-1.755-4.62Z" transform="translate(-237.274 -771.685)" fill="#fff"/>
      <path id="Trazado_96" data-name="Trazado 96" d="M263.747,777.062a7.75,7.75,0,0,0,.067,1.107h-.754l-.077-.582h-.029a1.7,1.7,0,0,1-1.413.687,1.315,1.315,0,0,1-1.412-1.326c0-1.118.993-1.728,2.777-1.719v-.1a.948.948,0,0,0-1.05-1.068,2.225,2.225,0,0,0-1.212.343l-.192-.564a3,3,0,0,1,1.527-.4c1.423,0,1.766.964,1.766,1.89Zm-.821-1.251c-.917-.019-1.956.143-1.956,1.041a.736.736,0,0,0,.782.8,1.167,1.167,0,0,0,1.136-.773.87.87,0,0,0,.038-.268Z" transform="translate(-250.165 -771.392)" fill="#fff"/>
      <path id="Trazado_97" data-name="Trazado 97" d="M278.812,767.614a.539.539,0,0,1,.02-1.078.516.516,0,0,1,.535.534.526.526,0,0,1-.544.544Zm-.4,5.469v-4.62h.84v4.62Z" transform="translate(-263.532 -766.307)" fill="#fff"/>
      <path id="Trazado_98" data-name="Trazado 98" d="M287.043,765.667h.84v6.777h-.84Z" transform="translate(-269.977 -765.667)" fill="#fff"/>
      <path id="Trazado_99" data-name="Trazado 99" d="M297.57,777.062a7.791,7.791,0,0,0,.067,1.107h-.755l-.076-.582h-.028a1.706,1.706,0,0,1-1.413.687,1.316,1.316,0,0,1-1.412-1.326c0-1.118.993-1.728,2.778-1.719v-.1a.948.948,0,0,0-1.051-1.068,2.219,2.219,0,0,0-1.211.343l-.192-.564a3,3,0,0,1,1.528-.4c1.422,0,1.766.964,1.766,1.89Zm-.821-1.251c-.917-.019-1.957.143-1.957,1.041a.736.736,0,0,0,.783.8,1.167,1.167,0,0,0,1.136-.773.856.856,0,0,0,.038-.268Z" transform="translate(-275.063 -771.392)" fill="#fff"/>
      <path id="Trazado_100" data-name="Trazado 100" d="M312.477,765.667h.84v2.892h.02a1.713,1.713,0,0,1,1.574-.84c1.146,0,1.948.955,1.948,2.348a2.205,2.205,0,0,1-2.081,2.482,1.655,1.655,0,0,1-1.546-.869h-.02l-.048.764h-.724c.028-.316.037-.782.037-1.193Zm.84,4.925a1.513,1.513,0,0,0,.03.305,1.3,1.3,0,0,0,1.259.983c.888,0,1.4-.716,1.4-1.776,0-.935-.477-1.727-1.374-1.727a1.394,1.394,0,0,0-1.318,1.384Z" transform="translate(-288.674 -765.667)" fill="#fff"/>
      <path id="Trazado_101" data-name="Trazado 101" d="M332.986,765.667h.839v6.777h-.839Z" transform="translate(-303.799 -765.667)" fill="#fff"/>
      <path id="Trazado_102" data-name="Trazado 102" d="M340.814,775.976a1.473,1.473,0,0,0,1.575,1.6,3.183,3.183,0,0,0,1.279-.229l.152.592a3.756,3.756,0,0,1-1.546.3A2.155,2.155,0,0,1,340,775.909a2.253,2.253,0,0,1,2.177-2.5,1.95,1.95,0,0,1,1.9,2.176,2.173,2.173,0,0,1-.029.4Zm2.453-.6a1.2,1.2,0,0,0-1.155-1.366,1.386,1.386,0,0,0-1.288,1.366Z" transform="translate(-308.964 -771.366)" fill="#fff"/>
      <path id="Trazado_103" data-name="Trazado 103" d="M367.649,778.274a2.2,2.2,0,0,1-2.215-2.377,2.261,2.261,0,0,1,2.291-2.453,2.185,2.185,0,0,1,2.224,2.367,2.264,2.264,0,0,1-2.291,2.463Zm.028-.63c.8,0,1.4-.754,1.4-1.8,0-.783-.391-1.766-1.383-1.766s-1.413.917-1.413,1.795c0,1.012.573,1.776,1.384,1.776Z" transform="translate(-327.687 -771.392)" fill="#fff"/>
      <path id="Trazado_104" data-name="Trazado 104" d="M386.272,774.8c0-.487-.011-.869-.04-1.251h.745l.047.754h.019a1.712,1.712,0,0,1,1.527-.859c.639,0,1.634.382,1.634,1.967v2.758h-.841v-2.664c0-.743-.276-1.374-1.069-1.374a1.212,1.212,0,0,0-1.126.859,1.257,1.257,0,0,0-.057.392v2.787h-.839Z" transform="translate(-342.998 -771.392)" fill="#fff"/>
      <path id="Trazado_105" data-name="Trazado 105" d="M413.312,769.647v1.107h1.2v.639h-1.2v2.491c0,.572.162.9.629.9a1.563,1.563,0,0,0,.488-.057l.037.639a2.281,2.281,0,0,1-.744.115,1.2,1.2,0,0,1-.908-.352,1.814,1.814,0,0,1-.324-1.213v-2.52h-.715v-.639h.715v-.85Z" transform="translate(-361.802 -768.597)" fill="#fff"/>
      <path id="Trazado_106" data-name="Trazado 106" d="M425.557,765.667h.84v2.882h.018a1.489,1.489,0,0,1,.6-.592,1.633,1.633,0,0,1,.86-.239c.62,0,1.612.382,1.612,1.976v2.749h-.839v-2.653c0-.754-.277-1.375-1.07-1.375a1.216,1.216,0,0,0-1.125.84,1.012,1.012,0,0,0-.058.4v2.787h-.84Z" transform="translate(-371.948 -765.667)" fill="#fff"/>
      <path id="Trazado_107" data-name="Trazado 107" d="M445,775.976a1.473,1.473,0,0,0,1.574,1.6,3.193,3.193,0,0,0,1.28-.229l.152.592a3.763,3.763,0,0,1-1.547.3,2.155,2.155,0,0,1-2.272-2.329,2.253,2.253,0,0,1,2.177-2.5,1.951,1.951,0,0,1,1.9,2.176,2.142,2.142,0,0,1-.029.4Zm2.453-.6a1.2,1.2,0,0,0-1.155-1.366,1.385,1.385,0,0,0-1.289,1.366Z" transform="translate(-385.661 -771.366)" fill="#fff"/>
      <path id="Trazado_108" data-name="Trazado 108" d="M470.938,767.614a.539.539,0,0,1,.019-1.078.516.516,0,0,1,.534.534.526.526,0,0,1-.545.544Zm-.4,5.469v-4.62h.84v4.62Z" transform="translate(-404.969 -766.307)" fill="#fff"/>
      <path id="Trazado_109" data-name="Trazado 109" d="M479.275,766.921a8.631,8.631,0,0,1,1.594-.134,2.635,2.635,0,0,1,1.8.535,1.734,1.734,0,0,1,.574,1.345,1.857,1.857,0,0,1-.507,1.374,2.662,2.662,0,0,1-1.966.706,2.923,2.923,0,0,1-.668-.056v2.576h-.831Zm.831,3.093a2.838,2.838,0,0,0,.687.067c1.011,0,1.613-.5,1.613-1.365s-.6-1.269-1.518-1.269a4.13,4.13,0,0,0-.783.067Z" transform="translate(-411.494 -766.492)" fill="#fff"/>
      <path id="Trazado_110" data-name="Trazado 110" d="M498.053,765.667h.84v2.882h.019a1.493,1.493,0,0,1,.6-.592,1.639,1.639,0,0,1,.859-.239c.62,0,1.613.382,1.613,1.976v2.749h-.84v-2.653c0-.754-.277-1.375-1.07-1.375a1.218,1.218,0,0,0-1.126.84,1.014,1.014,0,0,0-.057.4v2.787h-.84Z" transform="translate(-425.318 -765.667)" fill="#fff"/>
      <path id="Trazado_111" data-name="Trazado 111" d="M518.9,778.274a2.2,2.2,0,0,1-2.215-2.377,2.261,2.261,0,0,1,2.291-2.453,2.184,2.184,0,0,1,2.223,2.367,2.263,2.263,0,0,1-2.29,2.463Zm.029-.63c.8,0,1.4-.754,1.4-1.8,0-.783-.391-1.766-1.385-1.766s-1.413.917-1.413,1.795c0,1.012.573,1.776,1.384,1.776Z" transform="translate(-439.033 -771.392)" fill="#fff"/>
      <path id="Trazado_112" data-name="Trazado 112" d="M537.524,774.8c0-.487-.01-.869-.038-1.251h.745l.047.754h.02a1.713,1.713,0,0,1,1.527-.859c.639,0,1.631.382,1.631,1.967v2.758h-.839v-2.664c0-.743-.277-1.374-1.07-1.374a1.211,1.211,0,0,0-1.125.859,1.241,1.241,0,0,0-.059.392v2.787h-.839Z" transform="translate(-454.347 -771.392)" fill="#fff"/>
      <path id="Trazado_113" data-name="Trazado 113" d="M557.072,775.976a1.473,1.473,0,0,0,1.575,1.6,3.181,3.181,0,0,0,1.278-.229l.153.592a3.764,3.764,0,0,1-1.546.3,2.155,2.155,0,0,1-2.272-2.329,2.253,2.253,0,0,1,2.176-2.5,1.95,1.95,0,0,1,1.9,2.176,2.182,2.182,0,0,1-.028.4Zm2.453-.6a1.2,1.2,0,0,0-1.155-1.366,1.385,1.385,0,0,0-1.289,1.366Z" transform="translate(-468.168 -771.366)" fill="#fff"/>
    </g>
    <g id="Grupo_320" data-name="Grupo 320" transform="translate(128.671 756.31)">
      <path id="Trazado_114" data-name="Trazado 114" d="M227.342,807.87l-5.659,16.659h2.592l1.69-5.115h5.48l1.737,5.115h2.663l-5.684-16.659Zm1.343,2.739c.191.743.4,1.516.662,2.35l1.525,4.417h-4.341l1.5-4.445C228.265,812.209,228.482,811.431,228.685,810.609Z" transform="translate(-221.683 -807.604)" fill="#fff"/>
      <path id="Trazado_115" data-name="Trazado 115" d="M285.226,824.239a4.716,4.716,0,0,0-4.007,1.922l-.1-1.657h-2.305l.014.212c.068,1.032.1,2.168.1,3.8v12.84h2.52v-5.992a4.426,4.426,0,0,0,3.446,1.481,5.2,5.2,0,0,0,3.819-1.624,6.888,6.888,0,0,0,1.686-4.848,6.7,6.7,0,0,0-1.465-4.426A4.8,4.8,0,0,0,285.226,824.239Zm-.628,2.086c2.247,0,3.252,2.082,3.252,4.144,0,2.661-1.283,4.313-3.348,4.313a3.055,3.055,0,0,1-2.969-2.339,3.224,3.224,0,0,1-.09-.816V829.6a3.765,3.765,0,0,1,.08-.622c.012-.069.026-.138.036-.2A3.191,3.191,0,0,1,284.6,826.325Z" transform="translate(-263.741 -819.655)" fill="#fff"/>
      <path id="Trazado_116" data-name="Trazado 116" d="M334.422,824.239a4.718,4.718,0,0,0-4.007,1.922l-.1-1.657h-2.305l.013.212c.068,1.033.1,2.168.1,3.8v12.84h2.521v-5.992a4.422,4.422,0,0,0,3.444,1.481,5.2,5.2,0,0,0,3.821-1.624,6.894,6.894,0,0,0,1.685-4.848,6.7,6.7,0,0,0-1.465-4.426A4.793,4.793,0,0,0,334.422,824.239Zm-.627,2.086c2.246,0,3.251,2.082,3.251,4.144,0,2.661-1.284,4.313-3.348,4.313a3.055,3.055,0,0,1-2.969-2.339,3.23,3.23,0,0,1-.089-.816V829.6a3.64,3.64,0,0,1,.08-.624c.012-.068.025-.136.036-.2A3.19,3.19,0,0,1,333.794,826.325Z" transform="translate(-299.958 -819.655)" fill="#fff"/>
      <path id="Trazado_117" data-name="Trazado 117" d="M397.2,814.187c-2.352-.911-3.106-1.628-3.106-2.951,0-1.115.886-2.239,2.865-2.239a5.726,5.726,0,0,1,2.959.743l.214.132.711-2.1-.141-.082a7.3,7.3,0,0,0-3.67-.824c-3.214,0-5.459,1.9-5.459,4.614,0,2.19,1.406,3.721,4.424,4.818,2.138.8,2.935,1.619,2.935,3.023,0,1.589-1.228,2.575-3.2,2.575a6.9,6.9,0,0,1-3.633-1.03l-.218-.141-.677,2.152.124.082a8.63,8.63,0,0,0,4.259,1.1c4.332,0,5.868-2.641,5.868-4.9C401.454,816.817,400.223,815.379,397.2,814.187Z" transform="translate(-346.48 -806.863)" fill="#fff"/>
      <path id="Trazado_118" data-name="Trazado 118" d="M435.311,814.365l-2.472.776v2.094h-1.809v2.015h1.809v6.171a4.717,4.717,0,0,0,.873,3.2,3.232,3.232,0,0,0,2.438.957,5.918,5.918,0,0,0,1.948-.3l.141-.05-.121-2.018-.242.074a3.8,3.8,0,0,1-1.172.136c-.977,0-1.394-.618-1.394-2.069v-6.1h3.04v-2.015h-3.04Z" transform="translate(-375.798 -812.386)" fill="#fff"/>
      <path id="Trazado_119" data-name="Trazado 119" d="M465.745,824.239c-3.527,0-5.989,2.632-5.989,6.4,0,3.655,2.383,6.206,5.8,6.206h.023c2.885,0,5.989-2.01,5.989-6.423a6.369,6.369,0,0,0-1.606-4.458A5.609,5.609,0,0,0,465.745,824.239Zm-.073,1.99c2.268,0,3.3,2.21,3.3,4.265,0,2.527-1.408,4.361-3.347,4.361H465.6c-1.912,0-3.3-1.8-3.3-4.288C462.3,828.408,463.343,826.229,465.673,826.229Z" transform="translate(-396.947 -819.655)" fill="#fff"/>
      <path id="Trazado_120" data-name="Trazado 120" d="M516.27,824.356l-.151-.039a2.424,2.424,0,0,0-.627-.078,3.6,3.6,0,0,0-3.16,2.029l-.074-1.764H510l.015.212c.067,1,.1,2.118.1,3.63l-.024,8.234H512.6v-6.424a6.6,6.6,0,0,1,.069-.977,2.786,2.786,0,0,1,2.652-2.54,6.446,6.446,0,0,1,.677.042l.269.028Z" transform="translate(-433.932 -819.655)" fill="#fff"/>
      <path id="Trazado_121" data-name="Trazado 121" d="M539.354,824.148c-3.356,0-5.7,2.681-5.7,6.519,0,3.7,2.332,6.086,5.94,6.086a9.672,9.672,0,0,0,3.991-.766l.151-.068-.484-1.878-.211.085a7.81,7.81,0,0,1-3.158.565,3.5,3.5,0,0,1-3.775-3.654l8.136.024.032-.161a5.577,5.577,0,0,0,.076-1.052C544.353,827.219,543.044,824.148,539.354,824.148Zm-.169,1.917a2.486,2.486,0,0,1,1.85.706,3.584,3.584,0,0,1,.868,2.346h-5.747C536.389,827.662,537.3,826.065,539.185,826.065Z" transform="translate(-451.348 -819.588)" fill="#fff"/>
    </g>
  </g>
</svg>
