<svg id="Grupo_305" data-name="Grupo 305" xmlns="http://www.w3.org/2000/svg" width="19.753" height="22.365" viewBox="0 0 19.753 22.365">
  <path id="Trazado_78" data-name="Trazado 78" d="M906.753,304.365l-5.265-4.625.531,2.013H889.694A2.482,2.482,0,0,1,887,299.3V284.449a2.46,2.46,0,0,1,2.018-2.39l.023-.059h15.672l-.05.047a2.459,2.459,0,0,1,2.091,2.4Zm-4.646-15.553c-.2-.972-3.281-1.96-3.56-1.505.1.279,1.532.34,2.883,1.475a9.742,9.742,0,0,0-4.214-1.128l-.322-.017h-.005l-.314.017a9.735,9.735,0,0,0-4.213,1.128c1.351-1.135,2.789-1.2,2.884-1.475-.279-.455-3.356.533-3.56,1.505a13.231,13.231,0,0,0-1.361,6.12,4.293,4.293,0,0,0,3.5,1.633,5.177,5.177,0,0,0,.623-.871s-1.52-.625-1.9-1.318a6.8,6.8,0,0,0,3.994,1.257h.653a6.883,6.883,0,0,0,4.016-1.257c-.378.693-1.879,1.323-1.879,1.323a5.378,5.378,0,0,0,.625.869,4.3,4.3,0,0,0,3.5-1.634A13.229,13.229,0,0,0,902.108,288.812Z" transform="translate(-887 -282)" fill="#373a3c"/>
  <path id="Trazado_79" data-name="Trazado 79" d="M968.945,397.868a1.14,1.14,0,0,1,1.176-1.256c.74,0,1.095.858,1.095,1.256,0,.327-.355,1.256-1.095,1.256A1.14,1.14,0,0,1,968.945,397.868Z" transform="translate(-962.256 -387.257)" fill="#373a3c"/>
  <path id="Trazado_80" data-name="Trazado 80" d="M1021.216,397.868a1.14,1.14,0,0,0-1.176-1.256c-.74,0-1.094.858-1.094,1.256,0,.327.355,1.256,1.094,1.256A1.14,1.14,0,0,0,1021.216,397.868Z" transform="translate(-1008.175 -387.257)" fill="#373a3c"/>
</svg>
