<svg id="Grupo_354" data-name="Grupo 354" xmlns="http://www.w3.org/2000/svg" width="132.369" height="43.3" viewBox="0 0 132.369 43.3">
  <path id="Trazado_437" data-name="Trazado 437" d="M-1490.859,801.419a5.851,5.851,0,0,1-5.85,5.852h-120.667a5.852,5.852,0,0,1-5.852-5.852v-31.6a5.852,5.852,0,0,1,5.852-5.851h120.667a5.851,5.851,0,0,1,5.85,5.851Z" transform="translate(1623.228 -763.971)" fill="#161615"/>
  <g id="Grupo_333" data-name="Grupo 333" transform="translate(24.59 15.207)">
    <path id="Trazado_438" data-name="Trazado 438" d="M-1517,830.673c0,1.95.012,3.9-.005,5.85a2.178,2.178,0,0,1-1.547,2.072,3.159,3.159,0,0,1-.88.131c-2.814.01-5.628.007-8.442.008-.309,0-.342-.061-.334-.383q.023-1.052.005-2.105c-.005-.3.032-.362.328-.362q3.571,0,7.142,0a.815.815,0,0,0,.908-.911c0-2.718.032-5.436.052-8.153,0-.155.014-.31.019-.465a.838.838,0,0,0-.877-.918q-1.976-.005-3.951,0a.821.821,0,0,0-.852.868q.018,2,.045,3.991a.754.754,0,0,0,.8.743q1.276.009,2.552,0c.79-.005.729-.025.724.705,0,.6-.006,1.192.007,1.788.005.229-.087.3-.3.3-1.521-.006-3.043.008-4.564-.016a1.981,1.981,0,0,1-1.713-1.11,2.377,2.377,0,0,1-.3-1.28q.06-3,.082-6a3.185,3.185,0,0,1,.24-1.5,2.149,2.149,0,0,1,1.174-1.041,2.492,2.492,0,0,1,.958-.137c2.193,0,4.385-.01,6.577,0a2.021,2.021,0,0,1,2.02,1.843c.043,1.043.053,2.088.064,3.131.01.979,0,1.959,0,2.938Z" transform="translate(1528.213 -822.747)" fill="#fff"/>
    <path id="Trazado_439" data-name="Trazado 439" d="M-1415.139,830.613c0,1.91-.008,3.82,0,5.73a2.21,2.21,0,0,1-1.33,2.18,1.868,1.868,0,0,1-.766.193c-2.929.016-5.858.012-8.786.018-.2,0-.267-.077-.265-.276.009-.759.013-1.519,0-2.278,0-.247.089-.3.315-.3,2.389.006,4.778.011,7.167,0a1.147,1.147,0,0,0,.615-.224.607.607,0,0,0,.2-.435c.03-1.934.042-3.868.062-5.8.011-1,.017-1.991.05-2.986a.9.9,0,0,0-.957-1c-1.292.027-2.585,0-3.877,0a.793.793,0,0,0-.818.814c.013,1.347.044,2.694.036,4.04a.787.787,0,0,0,.778.762c.769-.013,1.538,0,2.307,0,.221,0,.441,0,.662-.006a.244.244,0,0,1,.291.275c0,.76,0,1.519,0,2.278,0,.2-.1.25-.276.249-1.129,0-2.258,0-3.387-.011a14.219,14.219,0,0,1-1.464-.055,1.856,1.856,0,0,1-1.366-.954,2.124,2.124,0,0,1-.335-1.2c.029-2.065.043-4.13.074-6.195a5.814,5.814,0,0,1,.115-1.185,1.856,1.856,0,0,1,1.174-1.311,2.451,2.451,0,0,1,1-.182c2.225.01,4.451-.01,6.676.012a2.045,2.045,0,0,1,2,1.977c.014,1.959,0,3.918,0,5.878Z" transform="translate(1452.663 -822.743)" fill="#fff"/>
    <path id="Trazado_440" data-name="Trazado 440" d="M-1251.433,822.788c1.865,0,3.731,0,5.6,0,.176,0,.244.037.244.229,0,1.535.022,3.069.031,4.6q.017,2.865.026,5.731c0,.5-.005.5-.528.5-.663,0-1.326,0-1.988,0-.207,0-.295-.067-.292-.283.026-2.17.045-4.341.069-6.512.005-.44.02-.881.042-1.32.011-.228-.093-.307-.306-.3-.531.006-1.063,0-1.6.007a.81.81,0,0,0-.85.865q.041,3.6.084,7.2c0,.305-.033.345-.327.346-.728,0-1.456-.005-2.184,0-.207,0-.288-.051-.287-.275.012-1.674,0-3.348.017-5.021.007-.947.037-1.893.064-2.839.006-.215-.079-.289-.289-.285q-.749.015-1.5,0a.834.834,0,0,0-.958.939c.014,1.191.048,2.383.06,3.574.013,1.216.007,2.433.015,3.65,0,.175-.065.253-.244.252-.769,0-1.538,0-2.307,0-.192,0-.238-.1-.237-.26q.02-2.852.041-5.7.014-1.579.045-3.159a2.08,2.08,0,0,1,1.345-1.792,3.07,3.07,0,0,1,1.055-.155C-1254.87,822.792-1253.152,822.788-1251.433,822.788Z" transform="translate(1328.726 -822.771)" fill="#fff"/>
    <path id="Trazado_441" data-name="Trazado 441" d="M-1466,828.364c0,1.175.023,2.35-.008,3.524a2.019,2.019,0,0,1-1.125,1.706,2.12,2.12,0,0,1-1.129.238c-2.265,0-4.53,0-6.795-.01a2.1,2.1,0,0,1-2.035-2.047c.008-1.77.03-3.54.05-5.309.007-.652-.015-1.307.047-1.954a1.992,1.992,0,0,1,1.324-1.615,2.925,2.925,0,0,1,1.056-.147c2.167,0,4.334-.014,6.5.008a2.053,2.053,0,0,1,2.057,2.008c.033,1.2.007,2.4.007,3.6Zm-5.53-2.928c-.655,0-1.309,0-1.963,0a.844.844,0,0,0-.885.913c.025,1.281.038,2.562.05,3.843a.772.772,0,0,0,.841.85c.1-.005.2,0,.294,0,1.211,0,2.422,0,3.632,0a.748.748,0,0,0,.809-.828q0-.784,0-1.568c0-.759-.009-1.519.024-2.277a.8.8,0,0,0-.841-.929C-1470.22,825.434-1470.875,825.436-1471.529,825.436Z" transform="translate(1490.321 -822.743)" fill="#fff"/>
    <path id="Trazado_442" data-name="Trazado 442" d="M-1304.386,822.744c1.145,0,2.292-.034,3.435.01a2.041,2.041,0,0,1,2.019,2.043q.042,2.865.078,5.729c0,.358.018.716.025,1.075a2.189,2.189,0,0,1-1.489,2.117,1.954,1.954,0,0,1-.6.091c-2.323.006-4.647.017-6.97,0a2,2,0,0,1-1.835-1.187,3.186,3.186,0,0,1-.225-1.572c.008-1.24.02-2.481.044-3.721.019-.978.009-1.96.106-2.931a1.823,1.823,0,0,1,1.22-1.471,2.73,2.73,0,0,1,1.172-.179c1.006.014,2.012,0,3.019,0Zm2.774,5.505h.058c0-.628,0-1.256,0-1.885a.839.839,0,0,0-.968-.964q-1.852.006-3.7,0a.9.9,0,0,0-1.026,1.048q.043,1.835.056,3.67a.81.81,0,0,0,.884.92q1.643.009,3.287.013c.229,0,.458,0,.686-.016a.735.735,0,0,0,.725-.658C-1301.606,829.668-1301.612,828.959-1301.612,828.25Z" transform="translate(1366.436 -822.732)" fill="#fff"/>
    <path id="Trazado_443" data-name="Trazado 443" d="M-1353.524,828.306c0-1.118-.008-2.236,0-3.354a2.132,2.132,0,0,1,2.238-2.171q3.3.009,6.6,0c.192,0,.235.066.233.243-.008.734,0,1.469,0,2.2,0,.128-.012.229-.177.228q-1.263-.01-2.526-.015c-.933,0-1.866.016-2.8-.01a.907.907,0,0,0-.929.971c.064,1.271.074,2.546.057,3.819a.825.825,0,0,0,.875.883q2.626,0,5.252,0c.285,0,.317.023.318.3,0,.735,0,1.469.007,2.2,0,.175-.06.25-.243.249-2.324,0-4.647.009-6.971-.007a2.14,2.14,0,0,1-2.02-2.182c0-.563.012-1.127.015-1.69s0-1.11,0-1.665Z" transform="translate(1398.792 -822.766)" fill="#fff"/>
    <path id="Trazado_444" data-name="Trazado 444" d="M-1371.94,857.733c-.368,0-.735-.007-1.1,0-.211.005-.3-.082-.293-.288.019-.725.034-1.449.051-2.174,0-.187.08-.273.286-.269q1.064.018,2.129,0c.183,0,.283.04.287.233.014.733.025,1.466.046,2.2.007.223-.079.305-.3.3C-1371.205,857.724-1371.573,857.733-1371.94,857.733Z" transform="translate(1413.418 -846.652)" fill="#fff"/>
  </g>
</svg>
