<svg xmlns="http://www.w3.org/2000/svg" xmlns:xlink="http://www.w3.org/1999/xlink" width="132.981" height="43.5" viewBox="0 0 132.981 43.5">
  <defs>
    <clipPath id="clip-path">
      <path id="Trazado_127" data-name="Trazado 127" d="M153.85,340.362l-6-3.462-11.566-6.678c-.642-.371-1.282-.146-1.282.629v27.208c0,.581.457.831,1.015.509l11.833-6.832,6-3.462,5.764-3.327c.676-.391.611-.927.041-1.234S153.85,340.362,153.85,340.362Z" transform="translate(-135.006 -330.047)" fill="none"/>
    </clipPath>
    <linearGradient id="linear-gradient" x1="0.5" x2="0.5" y2="1" gradientUnits="objectBoundingBox">
      <stop offset="0" stop-color="#0067a2"/>
      <stop offset="0.403" stop-color="#3d91a8"/>
      <stop offset="0.805" stop-color="#74b7ae"/>
      <stop offset="1" stop-color="#8ac6b1"/>
    </linearGradient>
    <linearGradient id="linear-gradient-2" y1="0.5" x2="1" y2="0.5" gradientUnits="objectBoundingBox">
      <stop offset="0" stop-color="#50b09b"/>
      <stop offset="1" stop-color="#e9e486"/>
    </linearGradient>
    <linearGradient id="linear-gradient-3" x1="0.5" x2="0.5" y2="1" gradientUnits="objectBoundingBox">
      <stop offset="0" stop-color="#dc1b24"/>
      <stop offset="0.228" stop-color="#c1203b"/>
      <stop offset="0.748" stop-color="#8a2b6c"/>
      <stop offset="1" stop-color="#753080"/>
    </linearGradient>
    <linearGradient id="linear-gradient-4" x1="0.5" x2="0.5" y2="1" gradientUnits="objectBoundingBox">
      <stop offset="0" stop-color="#eb7165"/>
      <stop offset="0.003" stop-color="#eb7164"/>
      <stop offset="0.675" stop-color="#f9a85e"/>
      <stop offset="1" stop-color="#ffbe5c"/>
    </linearGradient>
  </defs>
  <g id="Grupo_327" data-name="Grupo 327" transform="translate(-96.641 -296.074)">
    <path id="Trazado_122" data-name="Trazado 122" d="M229.622,333.695a5.879,5.879,0,0,1-5.877,5.879H102.52a5.88,5.88,0,0,1-5.879-5.879V301.953a5.879,5.879,0,0,1,5.879-5.879H223.745a5.878,5.878,0,0,1,5.877,5.879Z" transform="translate(0)" fill="#161615"/>
    <g id="PLAY" transform="translate(106.616 304.907)">
      <g id="Grupo_322" data-name="Grupo 322" transform="translate(0)" clip-path="url(#clip-path)">
        <path id="Trazado_123" data-name="Trazado 123" d="M135.006,328.285v29.458l14.854-14.729Z" transform="translate(-135.006 -328.743)" fill="url(#linear-gradient)"/>
        <path id="Trazado_124" data-name="Trazado 124" d="M153.85,338.753l-6-3.462-12.848-7.418v.107l14.854,14.729Z" transform="translate(-135.006 -328.438)" fill="url(#linear-gradient-2)"/>
        <path id="Trazado_125" data-name="Trazado 125" d="M135.006,399.666v.107l12.848-7.418,6-3.462-3.99-3.956Z" transform="translate(-135.006 -370.666)" fill="url(#linear-gradient-3)"/>
        <path id="Trazado_126" data-name="Trazado 126" d="M196.129,369.721l-3.99,3.956,3.99,3.956,6.853-3.956Z" transform="translate(-177.285 -359.406)" fill="url(#linear-gradient-4)"/>
      </g>
    </g>
    <g id="Grupo_323" data-name="Grupo 323" transform="translate(196.147 312.617)">
      <path id="Trazado_128" data-name="Trazado 128" d="M483.354,381.812a3.7,3.7,0,0,1-1.528-.309,2.88,2.88,0,0,1-1.161-.949h-.094a11.518,11.518,0,0,1,.094,1.422V385.5h-1.3V373.088h1.055l.179,1.173h.062a3.016,3.016,0,0,1,1.165-1.016,3.538,3.538,0,0,1,1.524-.313,3.166,3.166,0,0,1,2.63,1.165,6.2,6.2,0,0,1-.015,6.547A3.174,3.174,0,0,1,483.354,381.812Zm-.188-7.777a2.3,2.3,0,0,0-1.9.727,3.743,3.743,0,0,0-.6,2.314v.289a4.286,4.286,0,0,0,.6,2.584,2.289,2.289,0,0,0,1.93.777,2.008,2.008,0,0,0,1.74-.9,4.265,4.265,0,0,0,.629-2.478,4.105,4.105,0,0,0-.629-2.458A2.071,2.071,0,0,0,483.166,374.034Z" transform="translate(-479.368 -369.493)" fill="#f9f9f9"/>
      <path id="Trazado_129" data-name="Trazado 129" d="M516.242,371.865h-1.3V359.7h1.3Z" transform="translate(-505.694 -359.703)" fill="#f9f9f9"/>
      <path id="Trazado_130" data-name="Trazado 130" d="M531.807,381.7l-.258-1.219h-.062a3.6,3.6,0,0,1-1.278,1.09,3.882,3.882,0,0,1-1.59.285,2.862,2.862,0,0,1-2-.657,2.394,2.394,0,0,1-.723-1.868q0-2.595,4.151-2.72l1.454-.047v-.531a2.169,2.169,0,0,0-.434-1.489,1.783,1.783,0,0,0-1.387-.481,5.65,5.65,0,0,0-2.423.657l-.4-.993a6.1,6.1,0,0,1,1.388-.539,6.006,6.006,0,0,1,1.512-.2,3.264,3.264,0,0,1,2.271.68,2.841,2.841,0,0,1,.738,2.181V381.7Zm-2.931-.914a2.636,2.636,0,0,0,1.9-.664,2.46,2.46,0,0,0,.692-1.861v-.774l-1.3.054a4.72,4.72,0,0,0-2.232.482,1.45,1.45,0,0,0-.684,1.325,1.335,1.335,0,0,0,.426,1.071A1.766,1.766,0,0,0,528.875,380.785Z" transform="translate(-513.8 -369.537)" fill="#f9f9f9"/>
      <path id="Trazado_131" data-name="Trazado 131" d="M555.222,373.533h1.391l1.876,4.886a18.675,18.675,0,0,1,.766,2.416h.063q.1-.4.426-1.365t2.122-5.936h1.392l-3.682,9.755a4.867,4.867,0,0,1-1.278,2.052,2.718,2.718,0,0,1-1.793.605,5.249,5.249,0,0,1-1.173-.132v-1.039a4.533,4.533,0,0,0,.962.094,1.982,1.982,0,0,0,1.907-1.5l.477-1.219Z" transform="translate(-535.5 -369.937)" fill="#f9f9f9"/>
    </g>
    <g id="Grupo_325" data-name="Grupo 325" transform="translate(136.996 311.659)">
      <path id="Trazado_132" data-name="Trazado 132" d="M383.227,374.758a2.919,2.919,0,0,1-.233,4.963,1.26,1.26,0,0,0-.5.879.983.983,0,0,0,.466.77l.645.5a3.12,3.12,0,0,1,1.5,2.51c0,1.684-1.631,3.386-4.712,3.386-2.6,0-3.852-1.236-3.852-2.563a2.578,2.578,0,0,1,1.38-2.186,7.724,7.724,0,0,1,3.422-.825,1.875,1.875,0,0,1-.538-1.217,1.617,1.617,0,0,1,.179-.7c-.2.018-.395.036-.574.036a2.833,2.833,0,0,1-2.974-2.813,3.224,3.224,0,0,1,1.146-2.4,4.887,4.887,0,0,1,3.209-.986h3.691l-1.147.645Zm-1.273,7.956a2.781,2.781,0,0,0-.412-.019,7.169,7.169,0,0,0-1.882.288,2.013,2.013,0,0,0-1.541,1.845c0,1.272,1.237,2.187,3.154,2.187,1.719,0,2.634-.826,2.634-1.936C383.908,384.164,383.316,383.683,381.954,382.715Zm.52-3.4a1.813,1.813,0,0,0,.447-1.309c0-1.29-.77-3.3-2.257-3.3a1.674,1.674,0,0,0-1.255.591,2.07,2.07,0,0,0-.394,1.326c0,1.2.7,3.189,2.241,3.189A1.835,1.835,0,0,0,382.474,379.31Z" transform="translate(-344.125 -369.409)" fill="#f9f9f9"/>
      <path id="Trazado_133" data-name="Trazado 133" d="M346.438,381.7a4.222,4.222,0,0,1-4.365-4.223,4.433,4.433,0,0,1,4.634-4.346,4.182,4.182,0,0,1,4.275,4.222A4.371,4.371,0,0,1,346.438,381.7Zm2.236-1.449a3.236,3.236,0,0,0,.537-1.986c0-1.575-.751-4.58-2.97-4.58a2.492,2.492,0,0,0-1.61.609,2.707,2.707,0,0,0-.824,2.183c0,1.77.877,4.685,3.042,4.685A2.285,2.285,0,0,0,348.674,380.255Z" transform="translate(-318.617 -368.685)" fill="#f9f9f9"/>
      <path id="Trazado_134" data-name="Trazado 134" d="M309.141,381.7a4.222,4.222,0,0,1-4.365-4.223,4.433,4.433,0,0,1,4.634-4.346,4.182,4.182,0,0,1,4.275,4.222A4.371,4.371,0,0,1,309.141,381.7Zm2.236-1.449a3.241,3.241,0,0,0,.537-1.986c0-1.575-.752-4.58-2.97-4.58a2.493,2.493,0,0,0-1.61.609,2.707,2.707,0,0,0-.823,2.183c0,1.77.876,4.685,3.042,4.685A2.287,2.287,0,0,0,311.378,380.255Z" transform="translate(-291.017 -368.685)" fill="#f9f9f9"/>
      <path id="Trazado_135" data-name="Trazado 135" d="M264.248,369.9l-2.572.594a19.063,19.063,0,0,1-2.967.3c-4.965,0-6.853-3.651-6.853-6.511,0-3.489,2.679-6.725,7.267-6.725a10.354,10.354,0,0,1,2.751.378,7.012,7.012,0,0,1,2.374,1.115l-1.493,1.421-.629.143.45-.719a5.14,5.14,0,0,0-3.849-1.69,4.968,4.968,0,0,0-4.983,5.306,6.361,6.361,0,0,0,6.367,6.564,5.357,5.357,0,0,0,2.285-.45v-2.9l-2.715.144,1.438-.774h3.813l-.467.45a.42.42,0,0,0-.18.287c-.019.162-.036.684-.036.864Z" transform="translate(-251.856 -357.159)" fill="#f9f9f9"/>
      <path id="Trazado_136" data-name="Trazado 136" d="M413.241,368.24c-.594-.054-.718-.161-.718-.864V357.2c0-.039.006-.079.01-.116.073-.629.252-.737.81-1.061H410.77l-1.349.648H410.8v11.106c0,.359-.071.413-.485.953h3.184l.665-.395C413.854,368.293,413.548,368.276,413.241,368.24Z" transform="translate(-368.455 -356.019)" fill="#f9f9f9"/>
      <path id="Trazado_137" data-name="Trazado 137" d="M433.709,381.087c-.2.107-.392.233-.588.322a4.16,4.16,0,0,1-1.734.34,3.817,3.817,0,0,1-2.376-.7,4.623,4.623,0,0,1-1.821-3.769,4.048,4.048,0,0,1,4.09-4.126,3.472,3.472,0,0,1,1.841.5,2.957,2.957,0,0,1,1.249,1.767l-4.2,1.7-1.376.107c.446,2.268,1.982,3.589,3.679,3.589a4.615,4.615,0,0,0,2.179-.624Zm-1.678-5.323c.339-.125.517-.232.517-.482a1.772,1.772,0,0,0-1.769-1.536,2.2,2.2,0,0,0-2.054,2.483c0,.3.036.625.054.947Z" transform="translate(-381.604 -368.701)" fill="#f9f9f9"/>
      <g id="Grupo_324" data-name="Grupo 324" transform="translate(53.296 4.456)">
        <path id="Trazado_138" data-name="Trazado 138" d="M457.379,373.278v1.179h-.143v-1.179h-.39v-.122h.923v.122Z" transform="translate(-456.846 -373.156)" fill="#f9f9f9"/>
        <path id="Trazado_139" data-name="Trazado 139" d="M462.28,374.457v-1.189h-.007l-.363,1.189H461.8l-.366-1.189h0v1.189h-.13v-1.3h.223l.331,1.051h0l.326-1.051h.226v1.3Z" transform="translate(-460.141 -373.156)" fill="#f9f9f9"/>
      </g>
    </g>
    <g id="Grupo_326" data-name="Grupo 326" transform="translate(137.027 304.837)">
      <path id="Trazado_140" data-name="Trazado 140" d="M255.515,333.739h-.894a5.929,5.929,0,0,0-.254-1.045h-1.29a5.4,5.4,0,0,0-.263,1.045h-.841q0-.109.652-1.787a14.057,14.057,0,0,0,.652-1.849h1.056a15.437,15.437,0,0,0,.591,1.822A15.96,15.96,0,0,1,255.515,333.739Zm-1.29-1.578a15.8,15.8,0,0,1-.478-1.559H253.7a16.35,16.35,0,0,1-.494,1.559Z" transform="translate(-251.974 -330.019)" fill="#fbfcfc"/>
      <path id="Trazado_141" data-name="Trazado 141" d="M270.917,333.739h-.69a6.8,6.8,0,0,0-.768-1.209,6.662,6.662,0,0,1-.916-1.578H268.5a9.848,9.848,0,0,1,.07,1.106q0,.69.039,1.681h-.687q.042-.866.042-1.9,0-1.019-.042-1.734h.83a5.257,5.257,0,0,0,.69,1.181,6.955,6.955,0,0,1,.843,1.489h.042a10.6,10.6,0,0,1-.067-1.117q0-.757-.039-1.553h.7q-.039.693-.039,1.734T270.917,333.739Z" transform="translate(-263.774 -330.019)" fill="#fbfcfc"/>
      <path id="Trazado_142" data-name="Trazado 142" d="M286.272,331.747a2.06,2.06,0,0,1-.509,1.385,1.775,1.775,0,0,1-1.424.592q-.413,0-1.14-.034.036-.844.036-1.9,0-1.016-.036-1.734h.489q.12,0,.357-.009t.31-.008a1.883,1.883,0,0,1,1.462.5A1.738,1.738,0,0,1,286.272,331.747Zm-.763.12a1.346,1.346,0,0,0-.313-.9,1.186,1.186,0,0,0-.955-.367,2.963,2.963,0,0,0-.33.025q.028.559.028,1.167,0,.668.028,1.324a1.851,1.851,0,0,0,.363.036,1.055,1.055,0,0,0,.889-.373A1.439,1.439,0,0,0,285.51,331.867Z" transform="translate(-275.081 -329.971)" fill="#fbfcfc"/>
      <path id="Trazado_143" data-name="Trazado 143" d="M300.995,333.691h-.827a5.488,5.488,0,0,0-.5-1.22.651.651,0,0,0-.558-.232c-.108,0-.211,0-.31,0q0,.718.025,1.449h-.776q.036-.844.036-1.9,0-1.016-.036-1.734h.483q.084,0,.35-.009t.493-.008q1.282,0,1.282.877a.984.984,0,0,1-.732.969v.042a.873.873,0,0,1,.495.44A9.717,9.717,0,0,1,300.995,333.691Zm-1.047-2.57q0-.556-.715-.556a2.435,2.435,0,0,0-.464.039q.031.433.031,1.128.153.005.26.005Q299.947,331.739,299.947,331.122Z" transform="translate(-286.071 -329.971)" fill="#fbfcfc"/>
      <path id="Trazado_144" data-name="Trazado 144" d="M314.652,331.615a2.006,2.006,0,0,1-.525,1.422,1.7,1.7,0,0,1-1.3.564,1.641,1.641,0,0,1-1.234-.518,1.824,1.824,0,0,1-.5-1.317,2,2,0,0,1,.525-1.422,1.7,1.7,0,0,1,1.3-.564,1.643,1.643,0,0,1,1.234.517A1.823,1.823,0,0,1,314.652,331.615Zm-.771.081a1.442,1.442,0,0,0-.3-.947.92.92,0,0,0-.737-.363.852.852,0,0,0-.693.366,1.46,1.46,0,0,0-.285.924,1.438,1.438,0,0,0,.3.945.92.92,0,0,0,.736.365.851.851,0,0,0,.693-.367A1.461,1.461,0,0,0,313.882,331.7Z" transform="translate(-295.725 -329.78)" fill="#fbfcfc"/>
      <path id="Trazado_145" data-name="Trazado 145" d="M328.6,333.739h-.79q.036-.866.036-1.9,0-1.019-.036-1.734h.79q-.036.7-.036,1.734Q328.559,332.89,328.6,333.739Z" transform="translate(-308.089 -330.019)" fill="#fbfcfc"/>
      <path id="Trazado_146" data-name="Trazado 146" d="M337.671,331.747a2.059,2.059,0,0,1-.508,1.385,1.775,1.775,0,0,1-1.424.592q-.413,0-1.14-.034.036-.844.036-1.9,0-1.016-.036-1.734h.489q.12,0,.358-.009c.158-.005.262-.008.31-.008a1.883,1.883,0,0,1,1.462.5A1.739,1.739,0,0,1,337.671,331.747Zm-.762.12a1.347,1.347,0,0,0-.313-.9,1.186,1.186,0,0,0-.955-.367,2.958,2.958,0,0,0-.33.025q.028.559.028,1.167,0,.668.028,1.324a1.851,1.851,0,0,0,.363.036,1.055,1.055,0,0,0,.889-.373A1.439,1.439,0,0,0,336.909,331.867Z" transform="translate(-313.117 -329.971)" fill="#fbfcfc"/>
      <path id="Trazado_147" data-name="Trazado 147" d="M356.991,333.739H356.1a5.888,5.888,0,0,0-.255-1.045h-1.29a5.389,5.389,0,0,0-.262,1.045h-.841q0-.109.652-1.787a14.027,14.027,0,0,0,.652-1.849h1.056a15.412,15.412,0,0,0,.591,1.822A16.027,16.027,0,0,1,356.991,333.739Zm-1.29-1.578a15.856,15.856,0,0,1-.478-1.559h-.044a16.351,16.351,0,0,1-.494,1.559Z" transform="translate(-327.067 -330.019)" fill="#fbfcfc"/>
      <path id="Trazado_148" data-name="Trazado 148" d="M372.049,331.007a1.089,1.089,0,0,1-.5.986,2.2,2.2,0,0,1-1.216.318q-.131,0-.187-.005,0,.525.031,1.385H369.4q.036-.807.036-1.9,0-1.005-.036-1.734h.486q.1,0,.4-.009t.508-.008a1.6,1.6,0,0,1,.9.24A.812.812,0,0,1,372.049,331.007Zm-.721.153q0-.6-.793-.6a2.232,2.232,0,0,0-.419.042q.031.528.031,1.2.07.006.162.006Q371.329,331.806,371.329,331.161Z" transform="translate(-338.867 -329.971)" fill="#fbfcfc"/>
      <path id="Trazado_149" data-name="Trazado 149" d="M384.933,331.007a1.089,1.089,0,0,1-.5.986,2.206,2.206,0,0,1-1.216.318c-.088,0-.15,0-.187-.005q0,.525.031,1.385h-.785q.036-.807.036-1.9,0-1.005-.036-1.734h.486q.1,0,.4-.009t.508-.008a1.6,1.6,0,0,1,.9.24A.812.812,0,0,1,384.933,331.007Zm-.72.153q0-.6-.793-.6a2.232,2.232,0,0,0-.419.042q.031.528.031,1.2.07.006.162.006Q384.213,331.806,384.213,331.161Z" transform="translate(-348.401 -329.971)" fill="#fbfcfc"/>
      <path id="Trazado_150" data-name="Trazado 150" d="M403.43,331.615a2.005,2.005,0,0,1-.525,1.422,1.7,1.7,0,0,1-1.3.564,1.641,1.641,0,0,1-1.234-.518,1.825,1.825,0,0,1-.5-1.317,2.006,2.006,0,0,1,.525-1.422,1.7,1.7,0,0,1,1.3-.564,1.643,1.643,0,0,1,1.234.517A1.824,1.824,0,0,1,403.43,331.615Zm-.771.081a1.44,1.44,0,0,0-.3-.947.92.92,0,0,0-.737-.363.852.852,0,0,0-.693.366,1.46,1.46,0,0,0-.285.924,1.438,1.438,0,0,0,.3.945.919.919,0,0,0,.736.365.85.85,0,0,0,.693-.367A1.46,1.46,0,0,0,402.66,331.7Z" transform="translate(-361.422 -329.78)" fill="#fbfcfc"/>
      <path id="Trazado_151" data-name="Trazado 151" d="M419.581,333.739h-.69a6.8,6.8,0,0,0-.768-1.209,6.668,6.668,0,0,1-.916-1.578h-.044a9.9,9.9,0,0,1,.07,1.106q0,.69.039,1.681h-.687q.042-.866.042-1.9,0-1.019-.042-1.734h.829a5.264,5.264,0,0,0,.69,1.181,6.955,6.955,0,0,1,.843,1.489h.042a10.541,10.541,0,0,1-.067-1.117q0-.757-.039-1.553h.7q-.039.693-.039,1.734T419.581,333.739Z" transform="translate(-373.787 -330.019)" fill="#fbfcfc"/>
    </g>
  </g>
</svg>
