<svg id="Grupo_353" data-name="Grupo 353" xmlns="http://www.w3.org/2000/svg" width="131.33" height="42.96" viewBox="0 0 131.33 42.96">
  <path id="Trazado_432" data-name="Trazado 432" d="M-1496.766,1013.857a5.806,5.806,0,0,1-5.8,5.806h-119.72a5.806,5.806,0,0,1-5.806-5.806V982.509a5.806,5.806,0,0,1,5.806-5.805h119.72a5.805,5.805,0,0,1,5.8,5.805Z" transform="translate(1628.096 -976.703)" fill="#161615"/>
  <g id="Grupo_316" data-name="Grupo 316" transform="translate(8.404 11.871)">
    <path id="Trazado_433" data-name="Trazado 433" d="M-1580.938,1023.35c-.162.635-.317,1.231-.467,1.827a66.01,66.01,0,0,0-1.52,7.539,11.179,11.179,0,0,0-.078,3.174c.15.969.624,1.234,1.534.873a3,3,0,0,0,1.3-1.076,9.944,9.944,0,0,0,1.475-3.405c.08-.3.14-.6.213-.92h2.324c-.1.672-.22,1.336-.31,2a12.576,12.576,0,0,0-.143,3.46,2.569,2.569,0,0,0,.235.768.638.638,0,0,0,.953.295,2.454,2.454,0,0,0,.708-.662,8.207,8.207,0,0,0,1.122-2.714c.251-.969.436-1.956.661-2.932.02-.087.117-.222.182-.224.6-.017,1.2-.01,1.843-.01-.05.438-.1.844-.143,1.252-.141,1.421-.288,2.841-.412,4.263a5.514,5.514,0,0,0,.033,1.069c.041.377.235.47.526.231a2.575,2.575,0,0,0,1.107-1.873c.1-1.636.271-3.268.413-4.922h2.458c-.029.471-.057.934-.09,1.476.1-.126.155-.19.206-.255a3.771,3.771,0,0,1,3.53-1.529,1.739,1.739,0,0,1,1.517,1.22c.041.108.068.22.118.385.087-.1.154-.168.217-.242a3.772,3.772,0,0,1,3.2-1.383,1.851,1.851,0,0,1,1.826,1.691,8.054,8.054,0,0,1-.146,2.3c-.061.449-.134.9-.186,1.347a1.551,1.551,0,0,0,.022.488c.046.221.224.3.384.152.406-.383.787-.794,1.166-1.2.048-.051.038-.165.038-.25a36.765,36.765,0,0,1,2.24-12.112.348.348,0,0,1,.4-.274c.542.017,1.084.007,1.626.009.017,0,.033.016.074.038a56.923,56.923,0,0,0-2.215,9.193c.121-.11.181-.161.238-.217a4.161,4.161,0,0,1,3.55-1.13,1.9,1.9,0,0,1,1.579,1.943,6.929,6.929,0,0,1-.942,3.626,7.286,7.286,0,0,1-2.678,3.019,4.26,4.26,0,0,1-1.063.448,1.736,1.736,0,0,1-2.026-.809,5.118,5.118,0,0,1-.654-1.9c-.01-.055-.02-.11-.04-.223-.09.1-.152.168-.206.238-.4.521-.786,1.054-1.2,1.564a2.955,2.955,0,0,1-1.772,1.178c-.561.1-.913-.118-.953-.684a13.476,13.476,0,0,1,.021-1.933c.086-1.183.219-2.362.312-3.544a2.24,2.24,0,0,0-.088-.714.488.488,0,0,0-.694-.407,2.781,2.781,0,0,0-1.726,1.408,4.74,4.74,0,0,0-.466,1.719c-.194,1.229-.414,2.454-.624,3.681-.008.046-.024.09-.039.145h-2.239c.006-.119,0-.222.017-.322.183-1.387.389-2.771.542-4.161a10.41,10.41,0,0,0,.022-1.818c-.043-.651-.36-.833-.969-.582a2.964,2.964,0,0,0-1.876,2.522c-.159,1.254-.239,2.517-.354,3.776-.017.19-.04.38-.061.584h-2.706v-.458c-.6.411-1.159.874-1.9.669-.776-.215-.956-.915-1.245-1.661a1.157,1.157,0,0,1-.153.269,4.225,4.225,0,0,1-2.7,1.384,2.012,2.012,0,0,1-2.116-1.219,11.068,11.068,0,0,1-.5-1.564,4.655,4.655,0,0,1-.085-.475c-.127.2-.221.354-.318.505a7.54,7.54,0,0,1-1.771,2.015,4.071,4.071,0,0,1-1.942.857,2.112,2.112,0,0,1-2.262-1.118,5.48,5.48,0,0,1-.646-2.236,22.715,22.715,0,0,1,.07-4.307c.006-.065,0-.131,0-.216h-2.1c-.121.627-.234,1.252-.362,1.873a42.764,42.764,0,0,1-1.51,5.434.328.328,0,0,1-.368.269c-.754-.014-1.507-.005-2.293-.005.164-.637.321-1.241.475-1.845a69.513,69.513,0,0,0,1.487-7.132,13.874,13.874,0,0,0,.188-3.258,4.317,4.317,0,0,0-.22-.981.654.654,0,0,0-.719-.463,2.5,2.5,0,0,0-1.655.743,5.64,5.64,0,0,0-1.369,2.355c-.052.155-.1.312-.155.5-.343-.08-.681-.148-1.01-.246-.056-.017-.112-.165-.1-.245a7.141,7.141,0,0,1,.653-2.268,8.2,8.2,0,0,1,2.427-3.2,3.718,3.718,0,0,1,2.292-.855,1.977,1.977,0,0,1,1.644.826,4.563,4.563,0,0,1,.8,2.174,15.658,15.658,0,0,1,.071,3.523c-.02.246.033.346.3.336.541-.02,1.084-.013,1.626,0,.218,0,.317-.048.364-.288a41.424,41.424,0,0,1,1.609-5.847.4.4,0,0,1,.458-.315C-1582.406,1023.361-1581.7,1023.35-1580.938,1023.35Zm27.82,12.3c.08.557.146,1.229.28,1.888.094.461.308.537.75.362a2.447,2.447,0,0,0,1.027-.87,10.4,10.4,0,0,0,1.4-2.621,2.241,2.241,0,0,0,.132-.677.768.768,0,0,0-.659-.852,2.4,2.4,0,0,0-2.815,1.733C-1553.07,1034.912-1553.073,1035.224-1553.118,1035.65Z" transform="translate(1595.365 -1022.937)" fill="#fcfcfd"/>
    <path id="Trazado_434" data-name="Trazado 434" d="M-1265.3,1040.688c-.482.215-.926.457-1.4.615a2.119,2.119,0,0,1-2.8-.988,2.6,2.6,0,0,1-2.683,1.158,2.421,2.421,0,0,1-2.205-1.834c-.309.353-.582.7-.9,1.014a2.8,2.8,0,0,1-1.721.819,2.247,2.247,0,0,1-2.061-.894,3.672,3.672,0,0,1-.723-1.655c-.013-.066-.026-.132-.044-.2,0-.014-.025-.024-.049-.045-.305.447-.606.895-.914,1.337a3.722,3.722,0,0,1-1.362,1.233c-1,.51-1.6.2-1.6-.922-.007-.826.11-1.654.176-2.48.068-.865.153-1.729.2-2.595a2.293,2.293,0,0,0-.106-.739.441.441,0,0,0-.592-.361,2.507,2.507,0,0,0-1.52.991,4.161,4.161,0,0,0-.764,2.473c-.085,1.154-.2,2.306-.3,3.488-.113.006-.215.017-.317.017-.716,0-1.433.006-2.149,0a1.942,1.942,0,0,1-.416-.114,1.666,1.666,0,0,1-1.673.279c-.612-.3-.772-.925-.964-1.548a5.015,5.015,0,0,1-1.692,1.291,3,3,0,0,1-1.861.292,2.114,2.114,0,0,1-1.545-1.279,6.839,6.839,0,0,1-.558-2.7,22.455,22.455,0,0,1,.3-4.441c.013-.081.106-.212.164-.213.724-.015,1.447-.01,2.2-.01-.1.605-.2,1.174-.274,1.745a13.911,13.911,0,0,0-.2,3.631,2.93,2.93,0,0,0,.216.8.672.672,0,0,0,1.073.32,2.875,2.875,0,0,0,.724-.771,8.352,8.352,0,0,0,1.008-2.515c.248-.97.44-1.955.657-2.933.019-.085.041-.169.065-.267h1.979c-.12.993-.264,1.967-.349,2.945-.1,1.1-.153,2.213-.2,3.321a2.117,2.117,0,0,0,.186.64,3.033,3.033,0,0,0,.618-.315,1.418,1.418,0,0,0,.527-1.045c.118-1.7.28-3.4.421-5.107.04-.479.031-.481.522-.481h1.6c.372,0,.375,0,.359.361-.015.344-.038.687-.062,1.116.116-.144.178-.223.243-.3a3.716,3.716,0,0,1,3.555-1.454,1.78,1.78,0,0,1,1.552,1.606,7.879,7.879,0,0,1-.14,2.387c-.06.459-.127.917-.188,1.376a1.21,1.21,0,0,0,0,.26c.036.4.224.5.55.255a5.789,5.789,0,0,0,.771-.7.776.776,0,0,0,.118-.428,7.016,7.016,0,0,1,.934-3.191,3.142,3.142,0,0,1,3.247-1.558,1.988,1.988,0,0,1,1.166.632c.085-.519.16-.99.241-1.461a42,42,0,0,1,1.785-6.814.3.3,0,0,1,.336-.237c.57.01,1.139,0,1.734,0a1.887,1.887,0,0,1-.017.215c-.5,2.416-1.039,4.825-1.493,7.249a22.819,22.819,0,0,0-.491,5.668,3.882,3.882,0,0,0,.257,1.178.646.646,0,0,0,1.216.111,3.989,3.989,0,0,0,.613-1.792c.125-.917.21-1.84.289-2.762a34.357,34.357,0,0,1,1.039-5.915c.322-1.209.722-2.4,1.07-3.6a.43.43,0,0,1,.515-.36c.528.025,1.058.007,1.63.007-.115.516-.231.981-.323,1.451-.478,2.44-.981,4.877-1.411,7.325a18.423,18.423,0,0,0-.306,4.381,4.444,4.444,0,0,0,.222,1.128c.173.512.485.621.973.411.573-.246.562-.245.477-.883a7.52,7.52,0,0,1,.192-3.493,3.472,3.472,0,0,1,3.478-2.5,1.919,1.919,0,0,1,1.971,1.841,2.993,2.993,0,0,1-.4,1.86,13.67,13.67,0,0,1-2.191,2.8,1.386,1.386,0,0,1-.273.168l.06.127a2.516,2.516,0,0,0,.542.143,3,3,0,0,0,2.248-.751.264.264,0,0,1,.356-.051c.134.073.277.13.44.2a5.084,5.084,0,0,1-1.831,2.073,5.364,5.364,0,0,1-1.443.65A2.109,2.109,0,0,1-1265.3,1040.688Zm-12.459-2.763c.016.155.034.386.067.615a1.606,1.606,0,0,0,.093.333c.177.473.535.646.958.375a2.489,2.489,0,0,0,.771-.794,7.72,7.72,0,0,0,.927-2.987.878.878,0,0,0-.963-1.028,1.361,1.361,0,0,0-1.318.91A6.877,6.877,0,0,0-1277.754,1037.925Zm13.435-.076a7.114,7.114,0,0,0,2.045-2.427,1.381,1.381,0,0,0,.08-.247.96.96,0,0,0-.351-1.029.978.978,0,0,0-1.127.167,1.457,1.457,0,0,0-.279.33A4.275,4.275,0,0,0-1264.318,1037.848Z" transform="translate(1374.245 -1024.094)" fill="#fcfcfd"/>
    <path id="Trazado_435" data-name="Trazado 435" d="M-1349.811,1025.942a9.365,9.365,0,0,0-2.834,1.493,6.9,6.9,0,0,1-.374-.581.309.309,0,0,1,.053-.25,6.37,6.37,0,0,1,2.791-2.234,10.96,10.96,0,0,1,3.7-.885,8.974,8.974,0,0,1,3.576.363,5.216,5.216,0,0,1,1.2.575,2.55,2.55,0,0,1,1.209,2.656,6.236,6.236,0,0,1-.321,1.286,3.4,3.4,0,0,1-2.5,2.23c.368.052.665.085.959.139a2.82,2.82,0,0,1,2.508,2.842,6.592,6.592,0,0,1-5.585,6.881,9.607,9.607,0,0,1-3.121.076,2.851,2.851,0,0,1-2.678-2.643,14.091,14.091,0,0,1-.142-3.146,37.757,37.757,0,0,1,1.458-8.356C-1349.882,1026.262-1349.856,1026.134-1349.811,1025.942Zm1.187,8.672.054,0a5.212,5.212,0,0,0,.007.78,7.352,7.352,0,0,0,.277,1.264.946.946,0,0,0,1.052.685,19.219,19.219,0,0,0,1.986-.2,3.255,3.255,0,0,0,2.83-2.717,1.893,1.893,0,0,0-1.583-2.465c-.028-.006-.056-.015-.085-.02a15.715,15.715,0,0,0-4.105.053c-.073.008-.179.143-.188.229C-1348.47,1033.022-1348.545,1033.819-1348.624,1034.615Zm.388-4.739c.068.037.085.054.1.053a12.47,12.47,0,0,0,3.6-.514,2.926,2.926,0,0,0,2.057-2.429,1.454,1.454,0,0,0-.012-.543,1.4,1.4,0,0,0-1.28-1.051,9.907,9.907,0,0,0-3.092.02.42.42,0,0,0-.26.255c-.285.859-.575,1.718-.815,2.591C-1348.082,1028.791-1348.141,1029.347-1348.236,1029.876Z" transform="translate(1415.253 -1023.318)" fill="#fcfcfd"/>
    <path id="Trazado_436" data-name="Trazado 436" d="M-1403.541,1023.819c-.18.794-.351,1.545-.52,2.295-.559,2.484-1.047,4.982-1.359,7.51a14.755,14.755,0,0,0-.131,3.695,3.42,3.42,0,0,0,.247.915.565.565,0,0,0,.833.313c.627-.249.632-.25.553-.906a7.9,7.9,0,0,1,.127-3.273,3.447,3.447,0,0,1,2.623-2.625,3.7,3.7,0,0,1,1.319-.052,1.817,1.817,0,0,1,1.558,1.636,2.9,2.9,0,0,1-.375,2,13.914,13.914,0,0,1-2.183,2.806c-.061.062-.123.123-.182.186a.632.632,0,0,0-.052.112,2.863,2.863,0,0,0,.6.146,3.063,3.063,0,0,0,2.221-.76.372.372,0,0,1,.3-.05,2.9,2.9,0,0,1,.448.2.343.343,0,0,1-.017.1,5.045,5.045,0,0,1-3.273,2.658,2.114,2.114,0,0,1-2.265-.74c-.323.164-.622.345-.943.472a4.994,4.994,0,0,1-1.051.316,1.958,1.958,0,0,1-2.171-1.14,6.339,6.339,0,0,1-.623-2.657,28.123,28.123,0,0,1,.608-7.046,45.043,45.043,0,0,1,1.549-5.714c.1-.288.224-.418.549-.4C-1404.635,1023.842-1404.112,1023.819-1403.541,1023.819Zm1.458,13.341a6.983,6.983,0,0,0,2.053-2.444,1.282,1.282,0,0,0,.091-.392.864.864,0,0,0-.32-.824.8.8,0,0,0-.9-.044,1.721,1.721,0,0,0-.574.549,3.781,3.781,0,0,0-.476,2.394C-1402.192,1036.633-1402.135,1036.864-1402.083,1037.16Z" transform="translate(1456.029 -1023.585)" fill="#fcfcfd"/>
  </g>
</svg>
