<svg id="Grupo_316" data-name="Grupo 316" xmlns="http://www.w3.org/2000/svg" xmlns:xlink="http://www.w3.org/1999/xlink" width="22.735" height="22.735" viewBox="0 0 22.735 22.735">
  <defs>
    <radialGradient id="radial-gradient" cx="1.024" cy="0.922" r="1.232" gradientUnits="objectBoundingBox">
      <stop offset="0" stop-color="#d81081"/>
      <stop offset="0.999" stop-color="#5266b0"/>
    </radialGradient>
    <clipPath id="clip-path">
      <path id="Trazado_84" data-name="Trazado 84" d="M7.286,0h8.163c2.534,0,3.452.264,4.379.759a5.164,5.164,0,0,1,2.149,2.149c.5.926.759,1.845.759,4.379v8.163c0,2.534-.264,3.452-.759,4.379a5.164,5.164,0,0,1-2.149,2.149c-.926.5-1.845.759-4.379.759H7.286c-2.534,0-3.452-.264-4.379-.759A5.164,5.164,0,0,1,.759,19.827C.264,18.9,0,17.982,0,15.449V7.286C0,4.753.264,3.834.759,2.908A5.164,5.164,0,0,1,2.908.759C3.834.264,4.753,0,7.286,0Z" transform="translate(0 0)" fill="url(#radial-gradient)" clip-rule="evenodd"/>
    </clipPath>
    <clipPath id="clip-path-2">
      <rect id="Rectángulo_113" data-name="Rectángulo 113" width="24" height="24" transform="translate(-0.363 0.127)" fill="url(#radial-gradient)"/>
    </clipPath>
    <radialGradient id="radial-gradient-5" cx="0.85" cy="0.781" r="0.821" xlink:href="#radial-gradient"/>
    <clipPath id="clip-path-3">
      <path id="Trazado_86" data-name="Trazado 86" d="M7.286,0h8.163c2.534,0,3.452.264,4.379.759a5.164,5.164,0,0,1,2.149,2.149c.5.926.759,1.845.759,4.379v8.163c0,2.534-.264,3.452-.759,4.379a5.164,5.164,0,0,1-2.149,2.149c-.926.5-1.845.759-4.379.759H7.286c-2.534,0-3.452-.264-4.379-.759A5.164,5.164,0,0,1,.759,19.827C.264,18.9,0,17.982,0,15.449V7.286C0,4.753.264,3.834.759,2.908A5.164,5.164,0,0,1,2.908.759C3.834.264,4.753,0,7.286,0Z" transform="translate(0 0)" fill="#373a3c" clip-rule="evenodd"/>
    </clipPath>
    <clipPath id="clip-path-4">
      <rect id="Rectángulo_116" data-name="Rectángulo 116" width="24" height="24" transform="translate(-0.363 0.127)" fill="#373a3c"/>
    </clipPath>
  </defs>
  <g id="Grupo_310" data-name="Grupo 310" transform="translate(0 0)">
    <path id="Trazado_83" data-name="Trazado 83" d="M7.286,0h8.163c2.534,0,3.452.264,4.379.759a5.164,5.164,0,0,1,2.149,2.149c.5.926.759,1.845.759,4.379v8.163c0,2.534-.264,3.452-.759,4.379a5.164,5.164,0,0,1-2.149,2.149c-.926.5-1.845.759-4.379.759H7.286c-2.534,0-3.452-.264-4.379-.759A5.164,5.164,0,0,1,.759,19.827C.264,18.9,0,17.982,0,15.449V7.286C0,4.753.264,3.834.759,2.908A5.164,5.164,0,0,1,2.908.759C3.834.264,4.753,0,7.286,0Z" transform="translate(0 0)" fill-rule="evenodd" fill="url(#radial-gradient)"/>
    <g id="Grupo_309" data-name="Grupo 309" transform="translate(0 0)" clip-path="url(#clip-path)">
      <g id="Grupo_308" data-name="Grupo 308" transform="translate(-0.734 -0.631)">
        <rect id="Rectángulo_111" data-name="Rectángulo 111" width="24" height="24" transform="translate(-0.363 0.127)" fill="url(#radial-gradient)"/>
        <g id="Grupo_307" data-name="Grupo 307" transform="translate(0)" clip-path="url(#clip-path-2)">
          <rect id="Rectángulo_112" data-name="Rectángulo 112" width="34" height="35" transform="translate(-5.363 -5.873)" fill="url(#radial-gradient-5)"/>
        </g>
      </g>
    </g>
  </g>
  <g id="Grupo_314" data-name="Grupo 314" transform="translate(0 0)">
    <path id="Trazado_85" data-name="Trazado 85" d="M7.286,0h8.163c2.534,0,3.452.264,4.379.759a5.164,5.164,0,0,1,2.149,2.149c.5.926.759,1.845.759,4.379v8.163c0,2.534-.264,3.452-.759,4.379a5.164,5.164,0,0,1-2.149,2.149c-.926.5-1.845.759-4.379.759H7.286c-2.534,0-3.452-.264-4.379-.759A5.164,5.164,0,0,1,.759,19.827C.264,18.9,0,17.982,0,15.449V7.286C0,4.753.264,3.834.759,2.908A5.164,5.164,0,0,1,2.908.759C3.834.264,4.753,0,7.286,0Z" transform="translate(0 0)" fill="#373a3c" fill-rule="evenodd"/>
    <g id="Grupo_313" data-name="Grupo 313" transform="translate(0 0)" clip-path="url(#clip-path-3)">
      <g id="Grupo_312" data-name="Grupo 312" transform="translate(-0.734 -0.631)">
        <rect id="Rectángulo_114" data-name="Rectángulo 114" width="24" height="24" transform="translate(-0.363 0.127)" fill="#373a3c"/>
        <g id="Grupo_311" data-name="Grupo 311" transform="translate(0)" clip-path="url(#clip-path-4)">
          <rect id="Rectángulo_115" data-name="Rectángulo 115" width="34" height="35" transform="translate(-5.363 -5.873)" fill="#373a3c"/>
        </g>
      </g>
    </g>
  </g>
  <g id="Grupo_315" data-name="Grupo 315" transform="translate(3.502 3.454)">
    <path id="Trazado_87" data-name="Trazado 87" d="M133.189,128.294a4.057,4.057,0,1,0,4.057,4.057A4.057,4.057,0,0,0,133.189,128.294Zm0,6.692a2.635,2.635,0,1,1,2.635-2.635A2.635,2.635,0,0,1,133.189,134.986Z" transform="translate(-125.294 -124.456)" fill="#f7f7f9"/>
    <ellipse id="Elipse_1" data-name="Elipse 1" cx="0.946" cy="0.946" rx="0.946" ry="0.946" transform="translate(11.166 2.742)" fill="#f7f7f9"/>
    <path id="Trazado_88" data-name="Trazado 88" d="M77.362,65.444a5.8,5.8,0,0,0-.369-1.946,4.041,4.041,0,0,0-2.309-2.309,5.8,5.8,0,0,0-1.919-.369c-.845-.037-1.112-.048-3.255-.048s-2.416,0-3.255.048a5.8,5.8,0,0,0-1.919.369A4.041,4.041,0,0,0,62.027,63.5a5.8,5.8,0,0,0-.369,1.919c-.037.844-.048,1.112-.048,3.255s0,2.416.048,3.255a5.8,5.8,0,0,0,.369,1.919,4.041,4.041,0,0,0,2.309,2.309,5.8,5.8,0,0,0,1.919.4c.845.037,1.112.048,3.255.048s2.416,0,3.255-.048a5.8,5.8,0,0,0,1.919-.369,4.041,4.041,0,0,0,2.309-2.309,5.8,5.8,0,0,0,.369-1.919c.037-.845.048-1.112.048-3.255S77.41,66.283,77.362,65.444Zm-1.427,6.419h-.011a4.372,4.372,0,0,1-.273,1.481,2.619,2.619,0,0,1-1.5,1.5,4.373,4.373,0,0,1-1.465.273c-.834.037-1.069.048-3.207.048s-2.357,0-3.207-.048a4.373,4.373,0,0,1-1.465-.273,2.614,2.614,0,0,1-1.507-1.5,4.371,4.371,0,0,1-.273-1.465c-.037-.834-.048-1.069-.048-3.207s0-2.357.048-3.207a4.371,4.371,0,0,1,.273-1.481,2.614,2.614,0,0,1,1.507-1.5,4.374,4.374,0,0,1,1.465-.273c.834-.037,1.069-.048,3.207-.048s2.357,0,3.207.048a4.374,4.374,0,0,1,1.465.273,2.619,2.619,0,0,1,1.5,1.5,4.372,4.372,0,0,1,.273,1.465c.037.834.048,1.069.048,3.207S75.972,71.024,75.935,71.863Z" transform="translate(-61.61 -60.772)" fill="#f7f7f9"/>
  </g>
</svg>
