<svg xmlns="http://www.w3.org/2000/svg" width="134.335" height="43.943" viewBox="0 0 134.335 43.943">
  <g id="Grupo_331" data-name="Grupo 331" transform="translate(775.826 -976.242)">
    <path id="Trazado_152" data-name="Trazado 152" d="M-641.491,1014.246a5.938,5.938,0,0,1-5.937,5.939h-122.46a5.939,5.939,0,0,1-5.938-5.939V982.18a5.939,5.939,0,0,1,5.938-5.938h122.46a5.938,5.938,0,0,1,5.937,5.938Z" transform="translate(0 0)" fill="#161615"/>
    <g id="Grupo_328" data-name="Grupo 328" transform="translate(-727.596 984.989)">
      <path id="Trazado_153" data-name="Trazado 153" d="M-589.288,1010.232h1.408l2.912,7.559h-1.419l-.709-2h-3.017l-.709,2h-1.366Zm-.466,4.552h2.308l-1.133-3.25h-.032Z" transform="translate(592.189 -1010.052)" fill="#fff"/>
      <path id="Trazado_154" data-name="Trazado 154" d="M-567.721,1010.232h1.376l1.895,5.982h.021l1.938-5.982h1.344l-2.583,7.559H-565.2Z" transform="translate(574.147 -1010.052)" fill="#fff"/>
      <path id="Trazado_155" data-name="Trazado 155" d="M-542.488,1010.232h1.408l2.911,7.559h-1.419l-.71-2h-3.017l-.709,2h-1.366Zm-.466,4.552h2.308l-1.133-3.25h-.032Z" transform="translate(557.681 -1010.052)" fill="#fff"/>
      <path id="Trazado_156" data-name="Trazado 156" d="M-515.156,1010.232h1.323v7.559h-1.323Z" transform="translate(535.388 -1010.052)" fill="#fff"/>
      <path id="Trazado_157" data-name="Trazado 157" d="M-503.95,1010.232h1.323v6.416h3.843v1.144h-5.166Z" transform="translate(527.125 -1010.052)" fill="#fff"/>
      <path id="Trazado_158" data-name="Trazado 158" d="M-481.257,1010.232h1.408l2.911,7.559h-1.419l-.709-2h-3.017l-.709,2h-1.366Zm-.466,4.552h2.308l-1.133-3.25h-.032Z" transform="translate(512.531 -1010.052)" fill="#fff"/>
      <path id="Trazado_159" data-name="Trazado 159" d="M-453.926,1010.232h3.674a2.629,2.629,0,0,1,1.63.466,1.655,1.655,0,0,1,.614,1.408,1.687,1.687,0,0,1-.281.979,1.8,1.8,0,0,1-.8.63v.021a1.652,1.652,0,0,1,1.059.662,2.189,2.189,0,0,1,.36,1.286,2.166,2.166,0,0,1-.159.831,1.692,1.692,0,0,1-.5.667,2.509,2.509,0,0,1-.868.445,4.277,4.277,0,0,1-1.26.164h-3.473Zm1.323,3.166h2.16a1.184,1.184,0,0,0,.794-.27.965.965,0,0,0,.318-.778.986.986,0,0,0-.286-.8,1.281,1.281,0,0,0-.826-.233h-2.16Zm0,3.314h2.34a1.317,1.317,0,0,0,.937-.312,1.151,1.151,0,0,0,.334-.884,1.1,1.1,0,0,0-.334-.863,1.347,1.347,0,0,0-.937-.3h-2.34Z" transform="translate(490.239 -1010.052)" fill="#fff"/>
      <path id="Trazado_160" data-name="Trazado 160" d="M-425.547,1010.232h1.323v6.416h3.843v1.144h-5.166Z" transform="translate(469.314 -1010.052)" fill="#fff"/>
      <path id="Trazado_161" data-name="Trazado 161" d="M-402.41,1010.232h5.442v1.143h-4.118v1.98h3.811v1.08h-3.811v2.213h4.193v1.144h-5.516Z" transform="translate(452.254 -1010.052)" fill="#fff"/>
      <path id="Trazado_162" data-name="Trazado 162" d="M-363.719,1009.547a3.517,3.517,0,0,1,1.519.317,3.406,3.406,0,0,1,1.138.858,3.815,3.815,0,0,1,.715,1.26,4.634,4.634,0,0,1,.249,1.525,4.664,4.664,0,0,1-.249,1.535,3.81,3.81,0,0,1-.715,1.26,3.34,3.34,0,0,1-1.138.852,3.569,3.569,0,0,1-1.519.312,3.567,3.567,0,0,1-1.519-.312,3.335,3.335,0,0,1-1.138-.852,3.811,3.811,0,0,1-.715-1.26,4.671,4.671,0,0,1-.249-1.535,4.64,4.64,0,0,1,.249-1.525,3.816,3.816,0,0,1,.715-1.26,3.4,3.4,0,0,1,1.138-.858A3.515,3.515,0,0,1-363.719,1009.547Zm0,1.08a2.119,2.119,0,0,0-1.043.244,2.042,2.042,0,0,0-.715.651,2.941,2.941,0,0,0-.408.927,4.267,4.267,0,0,0-.132,1.059,4.267,4.267,0,0,0,.132,1.059,2.937,2.937,0,0,0,.408.926,2.041,2.041,0,0,0,.715.651,2.12,2.12,0,0,0,1.043.243,2.121,2.121,0,0,0,1.043-.243,2.046,2.046,0,0,0,.715-.651,2.943,2.943,0,0,0,.408-.926,4.278,4.278,0,0,0,.132-1.059,4.278,4.278,0,0,0-.132-1.059,2.947,2.947,0,0,0-.408-.927,2.047,2.047,0,0,0-.715-.651A2.12,2.12,0,0,0-363.719,1010.627Z" transform="translate(426.394 -1009.547)" fill="#fff"/>
      <path id="Trazado_163" data-name="Trazado 163" d="M-335.374,1010.232h1.4l3.451,5.569h.021v-5.569h1.26v7.559h-1.4l-3.441-5.558h-.032v5.558h-1.26Z" transform="translate(402.824 -1010.052)" fill="#fff"/>
    </g>
    <g id="Grupo_329" data-name="Grupo 329" transform="translate(-726.905 996.554)">
      <path id="Trazado_164" data-name="Trazado 164" d="M-587.226,1062.788a2.978,2.978,0,0,0,.262,1.307,2.357,2.357,0,0,0,.728.887,3.1,3.1,0,0,0,1.074.5,5.183,5.183,0,0,0,1.317.159,4.227,4.227,0,0,0,1.307-.177,2.643,2.643,0,0,0,.878-.458,1.659,1.659,0,0,0,.486-.644,1.929,1.929,0,0,0,.149-.738,1.594,1.594,0,0,0-.346-1.13,1.983,1.983,0,0,0-.756-.514,15.935,15.935,0,0,0-1.653-.495q-.944-.233-2.325-.607a5,5,0,0,1-1.429-.588,3.4,3.4,0,0,1-.906-.813,2.851,2.851,0,0,1-.476-.952,3.813,3.813,0,0,1-.14-1.027,3.473,3.473,0,0,1,.42-1.746,3.742,3.742,0,0,1,1.111-1.223,4.891,4.891,0,0,1,1.569-.719,6.869,6.869,0,0,1,1.774-.234,6.991,6.991,0,0,1,1.97.271,4.862,4.862,0,0,1,1.625.813,3.98,3.98,0,0,1,1.111,1.335,3.949,3.949,0,0,1,.411,1.84H-581.4a2.251,2.251,0,0,0-.878-1.821,3.485,3.485,0,0,0-2-.532,4.391,4.391,0,0,0-.84.084,2.681,2.681,0,0,0-.784.281,1.718,1.718,0,0,0-.588.532,1.437,1.437,0,0,0-.233.84,1.43,1.43,0,0,0,.439,1.111,2.835,2.835,0,0,0,1.149.607l.588.159q.513.14,1.148.308l1.242.327q.607.159.869.234a3.9,3.9,0,0,1,1.139.56,3.61,3.61,0,0,1,.813.813,3.37,3.37,0,0,1,.486.98,3.6,3.6,0,0,1,.159,1.046,3.773,3.773,0,0,1-.458,1.914,3.883,3.883,0,0,1-1.2,1.3,5.234,5.234,0,0,1-1.7.738,8.136,8.136,0,0,1-1.942.233,7.99,7.99,0,0,1-2.148-.28,5.031,5.031,0,0,1-1.756-.859,4.2,4.2,0,0,1-1.2-1.485,4.943,4.943,0,0,1-.467-2.138Z" transform="translate(589.561 -1053.58)" fill="#fff"/>
      <path id="Trazado_165" data-name="Trazado 165" d="M-545.26,1054.789h10.795v2.017H-538.7v11.318h-2.335v-11.318h-4.221Z" transform="translate(556.895 -1054.471)" fill="#fff"/>
      <path id="Trazado_166" data-name="Trazado 166" d="M-498.257,1054.789h9.6v2.017h-7.265v3.493h6.724v1.905h-6.724v3.9h7.4v2.017h-9.73Z" transform="translate(522.237 -1054.471)" fill="#fff"/>
      <path id="Trazado_167" data-name="Trazado 167" d="M-454.244,1054.789h2.484l5.136,13.335h-2.5l-1.251-3.53H-455.7l-1.251,3.53h-2.409Zm-.822,8.031h4.071l-2-5.733h-.056Z" transform="translate(493.557 -1054.471)" fill="#fff"/>
      <path id="Trazado_168" data-name="Trazado 168" d="M-406.172,1054.789h3.287l3.679,10.44h.037l3.586-10.44h3.25v13.335h-2.222v-10.291h-.037l-3.7,10.291h-1.924l-3.7-10.291h-.037v10.291h-2.222Z" transform="translate(454.337 -1054.471)" fill="#fff"/>
    </g>
    <g id="Grupo_330" data-name="Grupo 330" transform="translate(-765.173 983.74)">
      <path id="Trazado_169" data-name="Trazado 169" d="M-735.265,1018.384a14.519,14.519,0,0,1,12.992-13.512,14.542,14.542,0,0,1,15.983,12.888,14.533,14.533,0,0,1-12.7,16.021,14.507,14.507,0,0,1-15.665-10.179c.037.012.069.021.1.034q2.634,1.087,5.269,2.171a.232.232,0,0,1,.149.176,3.985,3.985,0,0,0,2.946,2.921,3.524,3.524,0,0,0,1.191.112,4.045,4.045,0,0,0,3.731-3.266,3.326,3.326,0,0,0,.068-.775.17.17,0,0,1,.085-.162q2.465-1.758,4.927-3.52a.3.3,0,0,1,.184-.055,5.483,5.483,0,0,0,3.48-1.222,5.355,5.355,0,0,0,1.982-3.319,5.39,5.39,0,0,0-1.273-4.638,5.391,5.391,0,0,0-3.03-1.783,5.171,5.171,0,0,0-1.47-.108,5.452,5.452,0,0,0-3.372,1.433,5.437,5.437,0,0,0-1.736,3.174,4.614,4.614,0,0,0-.074.894.3.3,0,0,1-.058.183q-1.718,2.492-3.432,4.987a.2.2,0,0,1-.2.1,4.036,4.036,0,0,0-2.179.614.178.178,0,0,1-.183.014q-1.487-.615-2.976-1.225l-4.6-1.894C-735.173,1018.425-735.22,1018.4-735.265,1018.384Z" transform="translate(735.265 -1004.792)" fill="#fff"/>
      <path id="Trazado_170" data-name="Trazado 170" d="M-675.85,1035.948a3.689,3.689,0,0,1,3.694-3.684,3.693,3.693,0,0,1,3.672,3.748,3.677,3.677,0,0,1-3.7,3.631A3.672,3.672,0,0,1-675.85,1035.948Zm.926,0a2.759,2.759,0,0,0,2.75,2.766,2.765,2.765,0,0,0,2.778-2.766,2.765,2.765,0,0,0-2.758-2.773A2.758,2.758,0,0,0-674.925,1035.95Z" transform="translate(691.455 -1025.049)" fill="#fff"/>
      <path id="Trazado_171" data-name="Trazado 171" d="M-707.7,1074.265c.064.023.1.036.143.053.532.22,1.065.439,1.6.661a2.225,2.225,0,0,0,1.027.193,2.223,2.223,0,0,0,1.994-1.364,2.278,2.278,0,0,0-1.227-3.051c-.571-.24-1.145-.475-1.717-.713-.03-.013-.06-.028-.1-.046a3.065,3.065,0,0,1,3.809,1.427,3.109,3.109,0,0,1-1.421,4.3A3.087,3.087,0,0,1-707.7,1074.265Z" transform="translate(714.936 -1052.717)" fill="#fff"/>
    </g>
  </g>
</svg>
