<svg xmlns="http://www.w3.org/2000/svg" width="132.981" height="43.5" viewBox="0 0 132.981 43.5">
  <g id="Grupo_333" data-name="Grupo 333" transform="translate(776.826 -1208.894)">
    <rect id="Rectángulo_117" data-name="Rectángulo 117" width="132.981" height="43.5" rx="5" transform="translate(-776.826 1208.894)" fill="#161615"/>
    <g id="Grupo_332" data-name="Grupo 332" transform="translate(-765.319 1218.726)">
      <path id="Trazado_172" data-name="Trazado 172" d="M-680.9,1258.074V1246.52c0-.33,0-.335.344-.335,1.2,0,2.393-.016,3.59,0a6.084,6.084,0,0,1,5.893,4.921,7.355,7.355,0,0,1,.128,1.353q.015,5.688.005,11.375a6.139,6.139,0,0,1-4.013,5.8,6.119,6.119,0,0,1-2.1.375c-1.152.008-2.3,0-3.455,0-.4,0-.4,0-.4-.405Zm4.739-1.181a2.406,2.406,0,0,0-2.423,2.355,2.43,2.43,0,0,0,2.251,2.432,2.409,2.409,0,0,0,2.542-2.36A2.39,2.39,0,0,0-676.159,1256.893Z" transform="translate(694.788 -1246.178)" fill="#fff" fill-rule="evenodd"/>
      <path id="Trazado_173" data-name="Trazado 173" d="M-723.432,1258.115V1269.7c0,.3-.032.332-.333.332l-4.915,0a6.117,6.117,0,0,1-4.362-1.7,5.885,5.885,0,0,1-1.742-3.137,5.471,5.471,0,0,1-.133-1.084c-.009-3.987-.061-7.976.015-11.962a5.828,5.828,0,0,1,3.584-5.394,5.963,5.963,0,0,1,2.645-.546c1.631,0,3.262,0,4.893,0,.338,0,.349.011.349.358Zm-1.945,9.968v-19.955h-.26c-1,0-2-.007-3.006,0a6.03,6.03,0,0,0-1,.09,4.182,4.182,0,0,0-3.35,4.017c0,3.927-.012,7.853.006,11.779a3.974,3.974,0,0,0,1.349,2.966,4.173,4.173,0,0,0,2.935,1.111c1.04,0,2.079,0,3.119,0C-725.517,1268.095-725.452,1268.087-725.377,1268.082Z" transform="translate(734.943 -1246.193)" fill="#fff" fill-rule="evenodd"/>
      <path id="Trazado_174" data-name="Trazado 174" d="M-568.914,1287.182c.82,0,1.591-.013,2.36.016.1,0,.25.205.286.339.716,2.659,1.418,5.321,2.159,8.118.131-.392.233-.669.316-.951.694-2.371,1.392-4.74,2.064-7.117.091-.323.214-.437.542-.413a7.444,7.444,0,0,0,1.182,0,.541.541,0,0,1,.658.471c.714,2.5,1.449,4.99,2.177,7.483.043.147.092.292.175.555.181-.642.339-1.175.482-1.712.574-2.162,1.14-4.327,1.725-6.486a.468.468,0,0,1,.323-.287c.754-.026,1.51-.013,2.337-.013-.151.563-.284,1.084-.43,1.6-.937,3.294-1.881,6.586-2.81,9.883a.468.468,0,0,1-.551.411c-.661-.024-1.325-.023-1.986,0a.5.5,0,0,1-.589-.438c-.644-2.339-1.309-4.673-1.967-7.009-.016-.058-.034-.115-.086-.289-.217.746-.408,1.387-.59,2.03-.5,1.762-1,3.522-1.484,5.288-.085.312-.213.433-.548.42-.693-.028-1.387-.012-2.081-.007-.22,0-.363-.019-.44-.294q-1.584-5.647-3.2-11.285A1.978,1.978,0,0,1-568.914,1287.182Z" transform="translate(612.295 -1276.634)" fill="#fff" fill-rule="evenodd"/>
      <path id="Trazado_175" data-name="Trazado 175" d="M-366.728,1287.2c0,1.426.013,2.779-.008,4.132-.006.41.076.581.54.571,1.466-.032,2.934-.03,4.4,0,.472.009.587-.156.576-.6-.029-1.2-.017-2.4-.019-3.6,0-.154.017-.308.027-.484h2.418v11.831h-2.438V1294.4H-366.7v4.669c-.815,0-1.579.012-2.34-.02-.071,0-.184-.286-.186-.439-.013-1.766-.008-3.533-.007-5.3,0-1.893.006-3.786-.006-5.678,0-.32.077-.454.418-.443C-368.145,1287.214-367.47,1287.2-366.728,1287.2Z" transform="translate(464.753 -1276.652)" fill="#fff" fill-rule="evenodd"/>
      <path id="Trazado_176" data-name="Trazado 176" d="M-616.763,1297.719l1.063-1.913c.8.275,1.54.582,2.308.782a7.125,7.125,0,0,0,3.908-.025,2.048,2.048,0,0,0,.669-.327c.81-.639.7-1.564-.269-1.9a19.094,19.094,0,0,0-2.554-.61,10.342,10.342,0,0,1-3.78-1.184,2.725,2.725,0,0,1-.39-4.3,6.252,6.252,0,0,1,4.514-1.55,13.047,13.047,0,0,1,4.278.8,1.17,1.17,0,0,1,.217.139l-.807,1.964a24.776,24.776,0,0,0-2.566-.644,6.021,6.021,0,0,0-3.164.211,1.009,1.009,0,0,0-.772.906.894.894,0,0,0,.756.9c.947.258,1.919.422,2.866.676a24.768,24.768,0,0,1,2.819.875,2.673,2.673,0,0,1,1.841,2.644,3.24,3.24,0,0,1-1.71,3.035,7.318,7.318,0,0,1-3.115.8,11.671,11.671,0,0,1-5.816-1.071,1.942,1.942,0,0,1-.205-.112A.651.651,0,0,1-616.763,1297.719Z" transform="translate(647.611 -1276.28)" fill="#fff" fill-rule="evenodd"/>
      <path id="Trazado_177" data-name="Trazado 177" d="M-413.023,1288.636l-1.911,1.662a3.772,3.772,0,0,0-3.272-1.833,3.584,3.584,0,0,0-2.629,1.094,3.542,3.542,0,0,0,0,5.143,3.554,3.554,0,0,0,3.134,1.069,3.847,3.847,0,0,0,2.764-1.8l1.884,1.632a6.114,6.114,0,0,1-5.812,2.833,6.284,6.284,0,0,1-5.678-5.586,6.3,6.3,0,0,1,4.376-6.752A6.288,6.288,0,0,1-413.023,1288.636Z" transform="translate(505.599 -1275.632)" fill="#fff" fill-rule="evenodd"/>
      <path id="Trazado_178" data-name="Trazado 178" d="M-464.362,1299.167h-2.588v-9.316h-3.777v-2.52h10v2.5h-3.631Z" transform="translate(539.685 -1276.755)" fill="#fff" fill-rule="evenodd"/>
      <path id="Trazado_179" data-name="Trazado 179" d="M-489.552,1299.2c-.714,0-1.419,0-2.124,0-.139,0-.278-.014-.452-.023v-11.834h2.575Z" transform="translate(555.431 -1276.762)" fill="#fff" fill-rule="evenodd"/>
      <path id="Trazado_180" data-name="Trazado 180" d="M-352.706,1252.967a3.3,3.3,0,0,1,3.334-3.35,3.3,3.3,0,0,1,3.35,3.359,3.313,3.313,0,0,1-3.358,3.354A3.312,3.312,0,0,1-352.706,1252.967Zm3.306-1.934a1.924,1.924,0,0,0-1.89,1.989,1.927,1.927,0,0,0,1.946,1.891,1.984,1.984,0,0,0,1.919-1.945A1.985,1.985,0,0,0-349.4,1251.032Z" transform="translate(452.474 -1248.733)" fill="#fff" fill-rule="evenodd"/>
      <path id="Trazado_181" data-name="Trazado 181" d="M-429.277,1254.436v-4.07a7.743,7.743,0,0,1,1.085.02c.094.014.218.269.219.414.016,1.607.01,3.215.01,4.822v1.063c-.4,0-.774.024-1.14-.014-.122-.012-.251-.164-.338-.28-.931-1.242-1.855-2.49-2.867-3.851v4.121h-1.3v-6.3c.379,0,.753-.019,1.122.012.111.009.232.138.31.241.846,1.113,1.683,2.231,2.524,3.348C-429.555,1254.089-429.457,1254.208-429.277,1254.436Z" transform="translate(512.199 -1249.282)" fill="#fff" fill-rule="evenodd"/>
      <path id="Trazado_182" data-name="Trazado 182" d="M-550.735,1250.369a8.678,8.678,0,0,1,1.129.015.787.787,0,0,1,.423.321c.857,1.126,1.7,2.262,2.55,3.394.052.069.108.135.252.312v-3.176c0-.877,0-.877.867-.874h.4v6.295c-.6.022-1.186.19-1.648-.532-.692-1.083-1.517-2.08-2.287-3.113-.093-.125-.192-.245-.365-.463v4.048c-.082.05-.107.078-.133.08-1.19.064-1.19.064-1.19-1.121Z" transform="translate(598.78 -1249.284)" fill="#fff" fill-rule="evenodd"/>
      <path id="Trazado_183" data-name="Trazado 183" d="M-610.532,1250.331h1.287v6.3a4.788,4.788,0,0,1-.844-.012.977.977,0,0,1-.57-.29c-.862-1.122-1.7-2.265-2.54-3.4-.09-.122-.193-.234-.359-.434v4.059c-.072.039-.1.064-.126.066-1.189.063-1.189.063-1.189-1.113,0-1.576.01-3.151-.007-4.727,0-.374.117-.456.482-.486a1.3,1.3,0,0,1,1.321.646c.74,1.073,1.549,2.1,2.331,3.142.043.058.1.107.214.236Z" transform="translate(646.195 -1249.23)" fill="#fff" fill-rule="evenodd"/>
      <path id="Trazado_184" data-name="Trazado 184" d="M-391.177,1256.6v-6.242c.708,0,1.395-.021,2.079.007a6.511,6.511,0,0,1,1.486.174,3.066,3.066,0,0,1,2.254,3.329,3.024,3.024,0,0,1-2.66,2.711A29.747,29.747,0,0,1-391.177,1256.6Zm1.293-3.132c0,.489.006.978,0,1.466,0,.25.074.388.351.376.425-.018.853.009,1.274-.033a1.8,1.8,0,0,0,1.572-1.729,1.818,1.818,0,0,0-1.505-1.785c-.435-.056-.88-.036-1.319-.065-.3-.02-.381.125-.374.4C-389.876,1252.549-389.885,1253.007-389.884,1253.464Z" transform="translate(481.055 -1249.275)" fill="#fff" fill-rule="evenodd"/>
      <path id="Trazado_185" data-name="Trazado 185" d="M-471.365,1251.677c-.057.08-.072.092-.073.106-.137,1.226-.137,1.226,1.1,1.226h2.205v1.13h-3.3v1.422h3.538v1.207h-4.81V1250.5h4.855a8.678,8.678,0,0,1-.017.995c-.008.072-.229.169-.354.171-.882.015-1.765.008-2.648.009Z" transform="translate(541.092 -1249.391)" fill="#fff" fill-rule="evenodd"/>
      <path id="Trazado_186" data-name="Trazado 186" d="M-509.321,1251.87H-511.3v-1.343h5.256v1.335h-1.884v4.922h-1.394Z" transform="translate(569.627 -1249.409)" fill="#fff" fill-rule="evenodd"/>
      <path id="Trazado_187" data-name="Trazado 187" d="M-574.263,1250.468h1.341v6.268h-1.341Z" transform="translate(616.147 -1249.365)" fill="#fff" fill-rule="evenodd"/>
      <path id="Trazado_188" data-name="Trazado 188" d="M-317.5,1328.036a4.427,4.427,0,0,1-.205.554,1.332,1.332,0,0,1-.264.275,1.524,1.524,0,0,1-.208-.266c-.081-.166-.135-.344-.224-.578-.053.33-.1.6-.142.873l-.168-.029v-1.474c.227-.03.227-.03.772.892.29-.266.044-.988.764-.931.134.953.079,1.384-.217,1.517v-.8Z" transform="translate(427.214 -1306.488)" fill="#fff" fill-rule="evenodd"/>
      <path id="Trazado_189" data-name="Trazado 189" d="M-324.211,1327.693a.827.827,0,0,1-.267-.032,1.049,1.049,0,0,1-.2-.189c.08-.052.156-.142.239-.15a4.463,4.463,0,0,1,.75,0c.1.009.2.1.3.152a1.97,1.97,0,0,1-.255.192.767.767,0,0,1-.225.042,7.511,7.511,0,0,1-.008.809,1.184,1.184,0,0,1-.183.365,1.2,1.2,0,0,1-.139-.339C-324.225,1328.275-324.211,1328.008-324.211,1327.693Z" transform="translate(431.646 -1306.455)" fill="#fff" fill-rule="evenodd"/>
      <path id="Trazado_190" data-name="Trazado 190" d="M-720.4,1267.515a2.21,2.21,0,0,1,2.225-2.229,2.212,2.212,0,0,1,2.251,2.28,2.222,2.222,0,0,1-2.277,2.2A2.217,2.217,0,0,1-720.4,1267.515Z" transform="translate(724.138 -1260.375)" fill="#fff" fill-rule="evenodd"/>
    </g>
  </g>
</svg>
