<svg xmlns="http://www.w3.org/2000/svg" width="27.255" height="22.149" viewBox="0 0 27.255 22.149">
  <path id="Trazado_89" data-name="Trazado 89" d="M77.255,71.355a11.182,11.182,0,0,1-3.211.88A5.61,5.61,0,0,0,76.5,69.142,11.19,11.19,0,0,1,72.951,70.5a5.6,5.6,0,0,0-9.528,5.1A15.875,15.875,0,0,1,51.9,69.757a5.6,5.6,0,0,0,1.73,7.465,5.57,5.57,0,0,1-2.533-.7c0,.023,0,.047,0,.07a5.6,5.6,0,0,0,4.485,5.483,5.605,5.605,0,0,1-2.525.1,5.6,5.6,0,0,0,5.223,3.883,11.219,11.219,0,0,1-6.944,2.394A11.338,11.338,0,0,1,50,88.37a15.9,15.9,0,0,0,24.481-13.4q0-.364-.016-.723A11.361,11.361,0,0,0,77.255,71.355Z" transform="translate(-50 -68.733)" fill="#373a3c"/>
</svg>
