<svg xmlns="http://www.w3.org/2000/svg" width="28.821" height="20.918" viewBox="0 0 28.821 20.918">
  <g id="Grupo_318" data-name="Grupo 318" transform="translate(0 0)">
    <path id="Trazado_90" data-name="Trazado 90" d="M677.9-432.9a2.505,2.505,0,0,0-.258-.305,3.117,3.117,0,0,0-.691-.5c-2.477-1.38-8.286-1.476-12.018-1.476h-.52c-3.57.01-8.694.145-11.241,1.307a3.661,3.661,0,0,0-1.042.673,2.4,2.4,0,0,0-.182.2c-1.679,2.054-1.495,8.063-1.487,8.288-.013.414-.159,6.057,1.364,8.165a2.494,2.494,0,0,0,.258.305,3.113,3.113,0,0,0,.691.5c2.477,1.38,8.286,1.476,12.018,1.476h.52c3.57-.01,8.694-.145,11.241-1.307a3.664,3.664,0,0,0,1.042-.673,2.385,2.385,0,0,0,.182-.2c1.679-2.054,1.495-8.063,1.487-8.288C679.277-425.148,679.423-430.791,677.9-432.9Z" transform="translate(-650.452 435.184)" fill="#373a3c"/>
    <path id="Trazado_91" data-name="Trazado 91" d="M895.868-299.314v7.989l7.7-4.036Z" transform="translate(-884.443 305.639)" fill="#f7f7f9"/>
  </g>
</svg>
